<svg width="300" height="300" viewBox="0 0 300 300" fill="none" xmlns="http://www.w3.org/2000/svg">
<g clip-path="url(#clip0_78_334)">
<path d="M165.225 137.013C165.225 136.019 165.828 135.513 166.2 135.297C166.394 135.181 166.725 135.025 167.156 135.025C167.428 135.025 167.741 135.103 168.072 135.278L209.134 158.269C210.013 158.756 210.15 159.553 210.15 159.984C210.15 160.413 210.013 161.213 209.134 161.7L168.072 184.688C167.234 185.138 166.531 184.863 166.2 184.669C165.828 184.453 165.225 183.947 165.225 182.953V137.013ZM161.15 193.288C163.022 194.378 165.069 194.925 167.156 194.925C169.125 194.925 171.113 194.419 172.947 193.403L214.031 170.434C217.853 168.291 220.134 164.391 220.134 159.984C220.134 155.578 217.853 151.678 214.031 149.531L172.947 126.563C169.222 124.475 164.816 124.534 161.15 126.678C157.444 128.844 155.241 132.703 155.241 137.013V182.953C155.241 187.263 157.444 191.122 161.15 193.288Z" fill="white"/>
<path d="M290.016 224.875C290.016 233.144 283.309 239.85 275.041 239.85H90.3499C82.0811 239.85 75.3749 233.144 75.3749 224.875V140.894C76.3499 138.203 80.5218 127.537 90.3499 114.65V209.9C90.3499 218.169 97.0561 224.875 105.325 224.875H260.066C268.334 224.875 275.041 218.169 275.041 209.9V105.075C275.041 96.8062 268.334 90.1 260.066 90.1H114.897C127.806 80.2719 138.472 76.0812 141.144 75.125H275.041C283.309 75.125 290.016 81.8312 290.016 90.1V224.875ZM200.166 264.809H170.216V249.834H200.166V264.809ZM245.091 282.278C245.091 286.412 241.737 289.766 237.603 289.766H132.778C128.644 289.766 125.291 286.412 125.291 282.278C125.291 278.147 128.644 274.791 132.778 274.791H237.603C241.737 274.791 245.091 278.147 245.091 282.278ZM105.325 100.084H260.066C262.816 100.084 265.059 102.325 265.059 105.075V209.9C265.059 212.65 262.816 214.891 260.066 214.891H105.325C102.575 214.891 100.331 212.65 100.331 209.9V105.075C100.331 103.75 100.859 102.559 101.719 101.681C101.737 101.625 101.775 101.603 101.816 101.566C101.853 101.525 101.894 101.487 101.931 101.469C102.809 100.609 104 100.084 105.325 100.084ZM76.253 76.0031C92.2218 60.0906 108.269 53.3844 114.409 51.2375L131.434 68.3594C123.262 72.1219 109.381 79.9219 94.9718 94.3125C94.8343 94.4281 94.678 94.5844 94.5624 94.7219C80.153 109.15 72.353 123.053 68.5874 131.222L51.4874 114.162C53.6343 108.019 60.3405 91.9719 76.253 76.0031ZM45.3655 47.6125L117.025 13.9562L111.487 41.6844C104.544 44.025 86.9186 51.2594 69.1936 68.9625C51.5093 86.6687 44.2749 104.294 41.9343 111.237L14.0499 116.794L45.3655 47.6125ZM159.959 35.4062L167.722 40.4156L159.044 49.0937L154.031 41.3125L159.959 35.4062ZM275.041 65.1406H142.334L121.216 43.9281L126.928 15.3625L146.428 34.8594C143.462 37.9031 142.919 42.5437 145.141 45.9531L151.497 55.8C152.922 57.9844 155.222 59.3906 157.834 59.6625C158.147 59.6812 158.478 59.7 158.791 59.7C161.187 59.7 163.509 58.7469 165.284 56.9906L175.619 46.6375C177.587 44.6687 178.562 41.9562 178.287 39.2094C178.016 36.5937 176.612 34.2937 174.428 32.8719C174.428 32.85 174.428 32.85 174.409 32.85L164.619 26.5344C161.187 24.2906 156.528 24.8375 153.487 27.8L127.397 1.71248C127.319 1.63435 127.222 1.6156 127.144 1.53748C127.066 1.4781 127.006 1.38123 126.928 1.32185C126.616 1.06873 126.266 0.893726 125.934 0.737476C125.819 0.696851 125.741 0.6406 125.641 0.599976C125.134 0.406225 124.591 0.309351 124.062 0.287476C123.906 0.287476 123.769 0.287476 123.616 0.309351C123.147 0.3281 122.659 0.406225 122.191 0.581225C122.094 0.618726 122.016 0.618726 121.919 0.659351C121.859 0.696851 121.781 0.696851 121.722 0.718726L39.4561 39.3656C38.3843 39.8719 37.528 40.7281 37.0405 41.8219L0.946763 121.531C0.168638 123.247 0.421763 125.237 1.59051 126.7C2.54676 127.909 3.99051 128.591 5.49051 128.591C5.80301 128.591 6.13426 128.55 6.46551 128.494L44.1749 120.966L65.3905 142.141V224.875C65.3905 238.641 76.5843 249.834 90.3499 249.834H160.234V264.809H132.778C123.147 264.809 115.309 272.647 115.309 282.278C115.309 291.912 123.147 299.75 132.778 299.75H237.603C247.237 299.75 255.075 291.912 255.075 282.278C255.075 272.647 247.237 264.809 237.603 264.809H210.15V249.834H275.041C288.806 249.834 300 238.641 300 224.875V90.1C300 76.3344 288.806 65.1406 275.041 65.1406Z" fill="white"/>
<path d="M205.159 120.05H245.091V140.016C245.091 142.766 247.334 145.009 250.084 145.009C252.831 145.009 255.075 142.766 255.075 140.016V120.05C255.075 114.55 250.591 110.066 245.091 110.066H205.159C202.409 110.066 200.166 112.309 200.166 115.059C200.166 117.806 202.409 120.05 205.159 120.05Z" fill="white"/>
<path d="M250.085 154.991C247.335 154.991 245.091 157.234 245.091 159.984V164.975C245.091 167.725 247.335 169.966 250.085 169.966C252.831 169.966 255.075 167.725 255.075 164.975V159.984C255.075 157.234 252.831 154.991 250.085 154.991Z" fill="white"/>
</g>
<defs>
<clipPath id="clip0_78_334">
<rect width="300" height="300" fill="white"/>
</clipPath>
</defs>
</svg>
