<svg xmlns="http://www.w3.org/2000/svg" xmlns:xlink="http://www.w3.org/1999/xlink" width="500" zoomAndPan="magnify" viewBox="0 0 375 374.999991" height="500" preserveAspectRatio="xMidYMid meet" version="1.0"><path fill="#ffffff" d="M 187.5 0.425781 C 84.046875 0.425781 0 84.472656 0 187.925781 C 0 281.839844 69.269531 359.558594 159.484375 373.113281 L 169.273438 374.59375 L 169.273438 226.84375 L 124.976562 226.84375 L 124.976562 196.847656 L 169.273438 196.847656 L 169.273438 157.015625 C 169.273438 132.484375 175.160156 116.332031 184.902344 106.195312 C 194.648438 96.058594 209.046875 90.945312 229.082031 90.945312 C 245.101562 90.945312 251.335938 91.917969 257.261719 92.644531 L 257.261719 117.199219 L 236.40625 117.199219 C 224.570312 117.199219 214.863281 123.800781 209.820312 132.59375 C 204.78125 141.390625 203.214844 151.890625 203.214844 162.589844 L 203.214844 196.832031 L 255.398438 196.832031 L 250.753906 226.828125 L 203.214844 226.828125 L 203.214844 374.828125 L 212.886719 373.511719 C 304.382812 361.101562 375 282.757812 375 187.925781 C 375 84.472656 290.953125 0.425781 187.5 0.425781 Z M 187.5 17.472656 C 281.742188 17.472656 357.953125 93.683594 357.953125 187.925781 C 357.953125 270.851562 298.601562 339.050781 220.257812 354.402344 L 220.257812 243.875 L 265.371094 243.875 L 275.273438 179.785156 L 220.257812 179.785156 L 220.257812 162.589844 C 220.257812 153.75 221.878906 145.828125 224.605469 141.066406 C 227.332031 136.308594 229.960938 134.242188 236.40625 134.242188 L 274.308594 134.242188 L 274.308594 77.214844 L 266.917969 76.214844 C 261.804688 75.523438 250.136719 73.902344 229.082031 73.902344 C 206.042969 73.902344 186.269531 80.175781 172.617188 94.375 C 158.96875 108.574219 152.226562 129.71875 152.226562 157.015625 L 152.226562 179.804688 L 107.933594 179.804688 L 107.933594 243.890625 L 152.226562 243.890625 L 152.226562 353.871094 C 75.144531 337.539062 17.046875 269.953125 17.046875 187.925781 C 17.046875 93.683594 93.257812 17.472656 187.5 17.472656 Z M 187.5 17.472656 " fill-opacity="1" fill-rule="nonzero"/></svg>