<svg xmlns="http://www.w3.org/2000/svg" xmlns:xlink="http://www.w3.org/1999/xlink" width="500" zoomAndPan="magnify" viewBox="0 0 375 374.999991" height="500" preserveAspectRatio="xMidYMid meet" version="1.0"><path fill="#ffffff" d="M 187.5 -0.015625 C 184.429688 -0.015625 181.363281 0.0585938 178.300781 0.210938 C 175.234375 0.359375 172.175781 0.585938 169.121094 0.886719 C 166.066406 1.1875 163.019531 1.5625 159.984375 2.011719 C 156.949219 2.464844 153.925781 2.988281 150.917969 3.585938 C 147.90625 4.1875 144.914062 4.859375 141.9375 5.601562 C 138.960938 6.347656 136.003906 7.167969 133.066406 8.058594 C 130.128906 8.949219 127.21875 9.910156 124.328125 10.945312 C 121.4375 11.980469 118.574219 13.082031 115.742188 14.257812 C 112.90625 15.433594 110.101562 16.675781 107.328125 17.988281 C 104.550781 19.300781 101.8125 20.679688 99.105469 22.125 C 96.398438 23.570312 93.730469 25.085938 91.097656 26.660156 C 88.464844 28.238281 85.875 29.882812 83.320312 31.585938 C 80.769531 33.289062 78.261719 35.058594 75.796875 36.886719 C 73.332031 38.714844 70.914062 40.601562 68.542969 42.546875 C 66.167969 44.496094 63.847656 46.5 61.570312 48.558594 C 59.296875 50.621094 57.074219 52.734375 54.90625 54.90625 C 52.734375 57.074219 50.621094 59.296875 48.558594 61.570312 C 46.5 63.847656 44.496094 66.167969 42.546875 68.542969 C 40.601562 70.914062 38.714844 73.332031 36.886719 75.796875 C 35.058594 78.261719 33.292969 80.769531 31.585938 83.320312 C 29.882812 85.875 28.238281 88.464844 26.660156 91.097656 C 25.085938 93.730469 23.570312 96.398438 22.125 99.105469 C 20.679688 101.8125 19.300781 104.550781 17.988281 107.328125 C 16.675781 110.101562 15.433594 112.90625 14.257812 115.742188 C 13.082031 118.574219 11.980469 121.4375 10.945312 124.328125 C 9.910156 127.21875 8.949219 130.128906 8.058594 133.066406 C 7.167969 136.003906 6.347656 138.960938 5.605469 141.9375 C 4.859375 144.914062 4.1875 147.90625 3.585938 150.917969 C 2.988281 153.925781 2.464844 156.949219 2.011719 159.984375 C 1.5625 163.019531 1.1875 166.066406 0.886719 169.121094 C 0.585938 172.175781 0.359375 175.234375 0.210938 178.300781 C 0.0585938 181.363281 -0.015625 184.429688 -0.015625 187.5 C -0.015625 190.570312 0.0585938 193.636719 0.210938 196.699219 C 0.359375 199.765625 0.585938 202.824219 0.886719 205.878906 C 1.1875 208.933594 1.5625 211.980469 2.011719 215.015625 C 2.464844 218.050781 2.988281 221.074219 3.585938 224.082031 C 4.1875 227.09375 4.859375 230.085938 5.605469 233.0625 C 6.347656 236.039062 7.167969 238.996094 8.058594 241.933594 C 8.949219 244.871094 9.910156 247.78125 10.945312 250.671875 C 11.980469 253.5625 13.082031 256.425781 14.257812 259.257812 C 15.433594 262.09375 16.675781 264.898438 17.988281 267.671875 C 19.300781 270.449219 20.679688 273.1875 22.125 275.894531 C 23.570312 278.601562 25.085938 281.269531 26.660156 283.902344 C 28.238281 286.535156 29.882812 289.125 31.585938 291.679688 C 33.292969 294.230469 35.058594 296.738281 36.886719 299.203125 C 38.714844 301.667969 40.601562 304.085938 42.546875 306.457031 C 44.496094 308.832031 46.5 311.152344 48.558594 313.429688 C 50.621094 315.703125 52.734375 317.925781 54.90625 320.09375 C 57.074219 322.265625 59.296875 324.378906 61.570312 326.441406 C 63.847656 328.5 66.167969 330.503906 68.542969 332.453125 C 70.914062 334.398438 73.332031 336.285156 75.796875 338.113281 C 78.261719 339.941406 80.769531 341.707031 83.320312 343.414062 C 85.875 345.117188 88.464844 346.761719 91.097656 348.335938 C 93.730469 349.914062 96.398438 351.425781 99.105469 352.875 C 101.8125 354.320312 104.550781 355.699219 107.328125 357.011719 C 110.101562 358.324219 112.90625 359.566406 115.742188 360.742188 C 118.574219 361.917969 121.4375 363.019531 124.328125 364.054688 C 127.21875 365.089844 130.128906 366.050781 133.066406 366.941406 C 136.003906 367.832031 138.960938 368.652344 141.9375 369.394531 C 144.914062 370.140625 147.90625 370.8125 150.917969 371.414062 C 153.925781 372.011719 156.949219 372.535156 159.984375 372.988281 C 163.019531 373.4375 166.066406 373.8125 169.121094 374.113281 C 172.175781 374.414062 175.234375 374.640625 178.300781 374.789062 C 181.363281 374.941406 184.429688 375.015625 187.5 375.015625 C 190.570312 375.015625 193.636719 374.941406 196.699219 374.789062 C 199.765625 374.640625 202.824219 374.414062 205.878906 374.113281 C 208.933594 373.8125 211.980469 373.4375 215.015625 372.988281 C 218.050781 372.535156 221.074219 372.011719 224.082031 371.414062 C 227.09375 370.8125 230.085938 370.140625 233.0625 369.394531 C 236.039062 368.652344 238.996094 367.832031 241.933594 366.941406 C 244.871094 366.050781 247.78125 365.089844 250.671875 364.054688 C 253.5625 363.019531 256.425781 361.917969 259.257812 360.742188 C 262.09375 359.566406 264.898438 358.324219 267.671875 357.011719 C 270.449219 355.699219 273.1875 354.320312 275.894531 352.875 C 278.601562 351.425781 281.269531 349.914062 283.902344 348.335938 C 286.535156 346.761719 289.125 345.117188 291.679688 343.414062 C 294.230469 341.707031 296.738281 339.941406 299.203125 338.113281 C 301.667969 336.285156 304.085938 334.398438 306.457031 332.453125 C 308.832031 330.503906 311.152344 328.5 313.429688 326.441406 C 315.703125 324.378906 317.925781 322.265625 320.09375 320.09375 C 322.265625 317.925781 324.378906 315.703125 326.441406 313.429688 C 328.5 311.152344 330.503906 308.832031 332.453125 306.457031 C 334.398438 304.085938 336.285156 301.667969 338.113281 299.203125 C 339.941406 296.738281 341.707031 294.230469 343.414062 291.679688 C 345.117188 289.125 346.761719 286.535156 348.335938 283.902344 C 349.914062 281.269531 351.429688 278.601562 352.875 275.894531 C 354.320312 273.1875 355.699219 270.449219 357.011719 267.671875 C 358.324219 264.898438 359.566406 262.09375 360.742188 259.257812 C 361.917969 256.425781 363.019531 253.5625 364.054688 250.671875 C 365.089844 247.78125 366.050781 244.871094 366.941406 241.933594 C 367.832031 238.996094 368.652344 236.039062 369.398438 233.0625 C 370.140625 230.085938 370.8125 227.09375 371.414062 224.082031 C 372.011719 221.074219 372.535156 218.050781 372.988281 215.015625 C 373.4375 211.980469 373.8125 208.933594 374.113281 205.878906 C 374.414062 202.824219 374.640625 199.765625 374.789062 196.699219 C 374.941406 193.636719 375.015625 190.570312 375.015625 187.5 C 375.011719 184.433594 374.933594 181.367188 374.78125 178.300781 C 374.625 175.238281 374.398438 172.179688 374.09375 169.125 C 373.789062 166.074219 373.410156 163.03125 372.957031 159.996094 C 372.503906 156.960938 371.980469 153.941406 371.378906 150.933594 C 370.777344 147.921875 370.101562 144.933594 369.355469 141.957031 C 368.605469 138.980469 367.785156 136.027344 366.894531 133.089844 C 366 130.15625 365.035156 127.242188 364 124.355469 C 362.964844 121.46875 361.859375 118.609375 360.683594 115.773438 C 359.507812 112.941406 358.265625 110.136719 356.953125 107.363281 C 355.640625 104.589844 354.257812 101.851562 352.8125 99.148438 C 351.363281 96.441406 349.851562 93.773438 348.273438 91.144531 C 346.695312 88.511719 345.054688 85.921875 343.347656 83.371094 C 341.644531 80.820312 339.875 78.316406 338.046875 75.851562 C 336.21875 73.386719 334.332031 70.96875 332.386719 68.597656 C 330.441406 66.226562 328.4375 63.90625 326.375 61.632812 C 324.316406 59.359375 322.199219 57.136719 320.03125 54.96875 C 317.863281 52.800781 315.640625 50.683594 313.367188 48.625 C 311.09375 46.5625 308.773438 44.558594 306.402344 42.613281 C 304.03125 40.667969 301.613281 38.78125 299.148438 36.953125 C 296.683594 35.125 294.179688 33.355469 291.628906 31.652344 C 289.078125 29.945312 286.488281 28.304688 283.855469 26.726562 C 281.226562 25.148438 278.558594 23.636719 275.851562 22.1875 C 273.148438 20.742188 270.410156 19.359375 267.636719 18.046875 C 264.863281 16.734375 262.058594 15.492188 259.226562 14.316406 C 256.390625 13.140625 253.53125 12.035156 250.644531 11 C 247.753906 9.964844 244.84375 9 241.910156 8.105469 C 238.972656 7.214844 236.019531 6.394531 233.042969 5.644531 C 230.066406 4.898438 227.074219 4.222656 224.066406 3.621094 C 221.058594 3.019531 218.039062 2.496094 215.003906 2.042969 C 211.96875 1.589844 208.925781 1.210938 205.875 0.90625 C 202.820312 0.601562 199.761719 0.375 196.699219 0.21875 C 193.632812 0.0664062 190.566406 -0.0117188 187.5 -0.015625 Z M 187.5 363.988281 C 184.613281 363.988281 181.726562 363.914062 178.839844 363.773438 C 175.957031 363.632812 173.074219 363.417969 170.203125 363.136719 C 167.328125 362.855469 164.460938 362.5 161.605469 362.078125 C 158.746094 361.652344 155.902344 361.160156 153.070312 360.59375 C 150.234375 360.03125 147.417969 359.398438 144.617188 358.699219 C 141.816406 357.996094 139.03125 357.226562 136.269531 356.386719 C 133.503906 355.546875 130.761719 354.644531 128.042969 353.671875 C 125.324219 352.695312 122.628906 351.65625 119.960938 350.550781 C 117.292969 349.445312 114.652344 348.277344 112.042969 347.042969 C 109.429688 345.808594 106.851562 344.507812 104.304688 343.148438 C 101.757812 341.785156 99.246094 340.363281 96.769531 338.878906 C 94.289062 337.394531 91.851562 335.847656 89.449219 334.242188 C 87.046875 332.636719 84.6875 330.976562 82.367188 329.253906 C 80.046875 327.535156 77.769531 325.757812 75.539062 323.925781 C 73.304688 322.09375 71.117188 320.207031 68.980469 318.269531 C 66.839844 316.328125 64.746094 314.335938 62.707031 312.292969 C 60.664062 310.253906 58.671875 308.160156 56.730469 306.019531 C 54.792969 303.882812 52.90625 301.695312 51.074219 299.460938 C 49.242188 297.230469 47.464844 294.953125 45.746094 292.632812 C 44.023438 290.3125 42.363281 287.953125 40.757812 285.550781 C 39.152344 283.148438 37.605469 280.710938 36.121094 278.230469 C 34.636719 275.753906 33.214844 273.242188 31.851562 270.695312 C 30.492188 268.148438 29.191406 265.570312 27.957031 262.957031 C 26.722656 260.347656 25.554688 257.707031 24.449219 255.039062 C 23.34375 252.371094 22.304688 249.675781 21.328125 246.957031 C 20.355469 244.238281 19.453125 241.496094 18.613281 238.730469 C 17.773438 235.96875 17.003906 233.183594 16.300781 230.382812 C 15.601562 227.582031 14.96875 224.761719 14.40625 221.929688 C 13.839844 219.097656 13.347656 216.253906 12.921875 213.394531 C 12.5 210.539062 12.144531 207.671875 11.863281 204.796875 C 11.578125 201.925781 11.367188 199.042969 11.226562 196.160156 C 11.085938 193.273438 11.011719 190.386719 11.011719 187.5 C 11.011719 184.613281 11.085938 181.726562 11.226562 178.839844 C 11.367188 175.957031 11.578125 173.074219 11.863281 170.203125 C 12.144531 167.328125 12.5 164.460938 12.921875 161.605469 C 13.347656 158.746094 13.839844 155.902344 14.40625 153.070312 C 14.96875 150.234375 15.601562 147.417969 16.300781 144.617188 C 17.003906 141.816406 17.773438 139.03125 18.613281 136.269531 C 19.453125 133.503906 20.355469 130.761719 21.328125 128.042969 C 22.304688 125.324219 23.34375 122.628906 24.449219 119.960938 C 25.554688 117.292969 26.722656 114.652344 27.957031 112.042969 C 29.191406 109.429688 30.492188 106.851562 31.851562 104.304688 C 33.214844 101.757812 34.636719 99.246094 36.121094 96.769531 C 37.605469 94.289062 39.152344 91.851562 40.757812 89.449219 C 42.363281 87.046875 44.023438 84.6875 45.746094 82.367188 C 47.464844 80.046875 49.242188 77.769531 51.074219 75.539062 C 52.90625 73.304688 54.792969 71.117188 56.730469 68.980469 C 58.671875 66.839844 60.664062 64.746094 62.707031 62.703125 C 64.746094 60.664062 66.839844 58.671875 68.980469 56.730469 C 71.117188 54.792969 73.304688 52.90625 75.539062 51.074219 C 77.769531 49.242188 80.046875 47.464844 82.367188 45.746094 C 84.6875 44.023438 87.046875 42.363281 89.449219 40.757812 C 91.851562 39.152344 94.289062 37.605469 96.769531 36.121094 C 99.246094 34.636719 101.757812 33.214844 104.304688 31.851562 C 106.851562 30.492188 109.429688 29.191406 112.042969 27.957031 C 114.652344 26.722656 117.292969 25.554688 119.960938 24.449219 C 122.628906 23.34375 125.324219 22.304688 128.042969 21.328125 C 130.761719 20.355469 133.503906 19.453125 136.269531 18.613281 C 139.03125 17.773438 141.816406 17.003906 144.617188 16.300781 C 147.417969 15.601562 150.238281 14.96875 153.070312 14.40625 C 155.902344 13.839844 158.746094 13.347656 161.605469 12.921875 C 164.460938 12.5 167.328125 12.144531 170.203125 11.863281 C 173.074219 11.578125 175.957031 11.367188 178.839844 11.226562 C 181.726562 11.085938 184.613281 11.011719 187.5 11.011719 C 190.386719 11.011719 193.273438 11.085938 196.160156 11.226562 C 199.042969 11.367188 201.925781 11.578125 204.796875 11.863281 C 207.671875 12.144531 210.539062 12.5 213.394531 12.921875 C 216.253906 13.347656 219.097656 13.839844 221.929688 14.40625 C 224.761719 14.96875 227.582031 15.601562 230.382812 16.300781 C 233.183594 17.003906 235.96875 17.773438 238.730469 18.613281 C 241.496094 19.453125 244.238281 20.355469 246.957031 21.328125 C 249.675781 22.304688 252.371094 23.34375 255.039062 24.449219 C 257.707031 25.554688 260.347656 26.722656 262.957031 27.957031 C 265.570312 29.191406 268.148438 30.492188 270.695312 31.851562 C 273.242188 33.214844 275.753906 34.636719 278.230469 36.121094 C 280.710938 37.605469 283.148438 39.152344 285.550781 40.757812 C 287.953125 42.363281 290.3125 44.023438 292.632812 45.746094 C 294.953125 47.464844 297.230469 49.242188 299.460938 51.074219 C 301.695312 52.90625 303.882812 54.792969 306.019531 56.730469 C 308.160156 58.671875 310.253906 60.664062 312.292969 62.703125 C 314.335938 64.746094 316.328125 66.839844 318.269531 68.980469 C 320.207031 71.117188 322.09375 73.304688 323.925781 75.539062 C 325.757812 77.769531 327.535156 80.046875 329.253906 82.367188 C 330.976562 84.6875 332.636719 87.046875 334.242188 89.449219 C 335.847656 91.851562 337.394531 94.289062 338.878906 96.769531 C 340.363281 99.246094 341.785156 101.757812 343.148438 104.304688 C 344.507812 106.851562 345.808594 109.429688 347.042969 112.042969 C 348.277344 114.652344 349.445312 117.292969 350.550781 119.960938 C 351.65625 122.628906 352.695312 125.324219 353.671875 128.042969 C 354.644531 130.761719 355.546875 133.503906 356.386719 136.269531 C 357.226562 139.03125 357.996094 141.816406 358.699219 144.617188 C 359.398438 147.417969 360.03125 150.234375 360.59375 153.070312 C 361.160156 155.902344 361.652344 158.746094 362.078125 161.605469 C 362.5 164.460938 362.855469 167.328125 363.136719 170.203125 C 363.421875 173.074219 363.632812 175.957031 363.773438 178.839844 C 363.914062 181.726562 363.988281 184.613281 363.988281 187.5 C 363.984375 190.386719 363.910156 193.273438 363.765625 196.15625 C 363.621094 199.039062 363.40625 201.917969 363.117188 204.792969 C 362.832031 207.664062 362.476562 210.53125 362.050781 213.386719 C 361.625 216.242188 361.128906 219.085938 360.5625 221.917969 C 359.996094 224.75 359.363281 227.5625 358.660156 230.363281 C 357.953125 233.164062 357.183594 235.945312 356.34375 238.710938 C 355.503906 241.472656 354.59375 244.210938 353.621094 246.929688 C 352.644531 249.648438 351.605469 252.339844 350.5 255.007812 C 349.390625 257.675781 348.222656 260.3125 346.984375 262.921875 C 345.75 265.53125 344.449219 268.109375 343.089844 270.65625 C 341.726562 273.203125 340.300781 275.710938 338.816406 278.1875 C 337.332031 280.664062 335.785156 283.101562 334.183594 285.503906 C 332.578125 287.902344 330.914062 290.261719 329.195312 292.582031 C 327.472656 294.902344 325.695312 297.175781 323.863281 299.410156 C 322.03125 301.640625 320.148438 303.824219 318.207031 305.964844 C 316.269531 308.105469 314.277344 310.195312 312.238281 312.238281 C 310.195312 314.277344 308.105469 316.269531 305.964844 318.207031 C 303.824219 320.148438 301.640625 322.03125 299.410156 323.863281 C 297.175781 325.695312 294.902344 327.472656 292.582031 329.195312 C 290.261719 330.914062 287.902344 332.578125 285.503906 334.183594 C 283.101562 335.785156 280.664062 337.332031 278.1875 338.816406 C 275.710938 340.300781 273.203125 341.726562 270.65625 343.089844 C 268.109375 344.449219 265.53125 345.75 262.921875 346.984375 C 260.3125 348.222656 257.675781 349.390625 255.007812 350.5 C 252.339844 351.605469 249.648438 352.644531 246.929688 353.621094 C 244.210938 354.59375 241.472656 355.503906 238.710938 356.34375 C 235.945312 357.183594 233.164062 357.953125 230.363281 358.660156 C 227.5625 359.363281 224.75 359.996094 221.917969 360.5625 C 219.085938 361.128906 216.242188 361.625 213.386719 362.050781 C 210.53125 362.476562 207.664062 362.832031 204.792969 363.117188 C 201.917969 363.40625 199.039062 363.621094 196.15625 363.765625 C 193.273438 363.910156 190.386719 363.984375 187.5 363.988281 Z M 187.5 363.988281 " fill-opacity="1" fill-rule="nonzero"/><path fill="#ffffff" d="M 300.242188 101.601562 L 74.757812 101.601562 C 74.230469 101.601562 73.703125 101.628906 73.179688 101.679688 C 72.652344 101.730469 72.132812 101.808594 71.617188 101.914062 C 71.097656 102.015625 70.585938 102.144531 70.082031 102.296875 C 69.578125 102.449219 69.082031 102.628906 68.59375 102.832031 C 68.109375 103.03125 67.632812 103.257812 67.167969 103.507812 C 66.703125 103.757812 66.25 104.027344 65.8125 104.320312 C 65.375 104.613281 64.949219 104.925781 64.542969 105.261719 C 64.136719 105.597656 63.746094 105.949219 63.371094 106.324219 C 63 106.695312 62.644531 107.085938 62.3125 107.492188 C 61.976562 107.902344 61.664062 108.324219 61.371094 108.761719 C 61.078125 109.199219 60.804688 109.652344 60.558594 110.117188 C 60.308594 110.582031 60.082031 111.058594 59.882812 111.546875 C 59.679688 112.03125 59.5 112.527344 59.347656 113.03125 C 59.195312 113.539062 59.066406 114.046875 58.960938 114.566406 C 58.859375 115.082031 58.78125 115.601562 58.730469 116.128906 C 58.675781 116.652344 58.652344 117.179688 58.648438 117.707031 L 58.648438 257.292969 C 58.652344 257.820312 58.675781 258.347656 58.730469 258.871094 C 58.78125 259.398438 58.859375 259.917969 58.960938 260.433594 C 59.066406 260.953125 59.195312 261.464844 59.347656 261.96875 C 59.5 262.472656 59.679688 262.96875 59.882812 263.453125 C 60.082031 263.941406 60.308594 264.417969 60.558594 264.882812 C 60.804688 265.347656 61.078125 265.800781 61.371094 266.238281 C 61.664062 266.675781 61.976562 267.097656 62.3125 267.507812 C 62.644531 267.914062 63 268.304688 63.371094 268.679688 C 63.746094 269.050781 64.136719 269.40625 64.542969 269.738281 C 64.949219 270.074219 65.375 270.386719 65.8125 270.679688 C 66.25 270.972656 66.703125 271.246094 67.167969 271.492188 C 67.632812 271.742188 68.109375 271.96875 68.59375 272.167969 C 69.082031 272.371094 69.578125 272.550781 70.082031 272.703125 C 70.585938 272.855469 71.097656 272.984375 71.617188 273.089844 C 72.132812 273.191406 72.652344 273.269531 73.179688 273.320312 C 73.703125 273.375 74.230469 273.398438 74.757812 273.398438 L 300.242188 273.398438 C 300.769531 273.398438 301.296875 273.375 301.820312 273.320312 C 302.347656 273.269531 302.867188 273.191406 303.382812 273.085938 C 303.902344 272.984375 304.414062 272.855469 304.917969 272.703125 C 305.421875 272.550781 305.917969 272.371094 306.40625 272.167969 C 306.890625 271.96875 307.367188 271.742188 307.832031 271.492188 C 308.296875 271.246094 308.75 270.972656 309.1875 270.679688 C 309.625 270.386719 310.050781 270.074219 310.457031 269.738281 C 310.863281 269.40625 311.253906 269.050781 311.628906 268.675781 C 312 268.304688 312.355469 267.914062 312.6875 267.507812 C 313.023438 267.097656 313.335938 266.675781 313.628906 266.238281 C 313.921875 265.800781 314.195312 265.347656 314.441406 264.882812 C 314.691406 264.417969 314.917969 263.941406 315.117188 263.453125 C 315.320312 262.96875 315.5 262.472656 315.652344 261.96875 C 315.804688 261.464844 315.933594 260.953125 316.039062 260.433594 C 316.140625 259.917969 316.21875 259.398438 316.269531 258.871094 C 316.324219 258.347656 316.347656 257.820312 316.351562 257.292969 L 316.351562 117.707031 C 316.347656 117.179688 316.324219 116.652344 316.269531 116.128906 C 316.21875 115.601562 316.140625 115.082031 316.039062 114.566406 C 315.933594 114.046875 315.804688 113.539062 315.652344 113.03125 C 315.5 112.527344 315.320312 112.03125 315.117188 111.546875 C 314.917969 111.058594 314.691406 110.582031 314.441406 110.117188 C 314.195312 109.652344 313.921875 109.199219 313.628906 108.761719 C 313.335938 108.324219 313.023438 107.902344 312.6875 107.492188 C 312.355469 107.085938 312 106.695312 311.628906 106.324219 C 311.253906 105.949219 310.863281 105.597656 310.457031 105.261719 C 310.050781 104.925781 309.625 104.613281 309.1875 104.320312 C 308.75 104.027344 308.296875 103.757812 307.832031 103.507812 C 307.367188 103.257812 306.890625 103.03125 306.40625 102.832031 C 305.917969 102.628906 305.421875 102.449219 304.917969 102.296875 C 304.414062 102.144531 303.902344 102.015625 303.382812 101.914062 C 302.867188 101.808594 302.347656 101.730469 301.820312 101.679688 C 301.296875 101.628906 300.769531 101.601562 300.242188 101.601562 Z M 295.488281 112.335938 L 190.824219 194.78125 C 190.351562 195.15625 189.828125 195.441406 189.261719 195.636719 C 188.691406 195.835938 188.105469 195.933594 187.503906 195.933594 C 186.902344 195.933594 186.316406 195.835938 185.746094 195.640625 C 185.175781 195.441406 184.65625 195.160156 184.179688 194.789062 L 79.511719 112.335938 Z M 305.613281 257.292969 C 305.613281 257.644531 305.578125 257.996094 305.507812 258.339844 C 305.4375 258.6875 305.335938 259.023438 305.203125 259.347656 C 305.066406 259.671875 304.902344 259.980469 304.707031 260.277344 C 304.511719 260.570312 304.289062 260.839844 304.039062 261.089844 C 303.789062 261.339844 303.519531 261.5625 303.226562 261.757812 C 302.933594 261.953125 302.621094 262.117188 302.296875 262.253906 C 301.972656 262.386719 301.636719 262.488281 301.289062 262.558594 C 300.945312 262.628906 300.59375 262.660156 300.242188 262.664062 L 74.757812 262.664062 C 74.402344 262.660156 74.054688 262.628906 73.710938 262.558594 C 73.363281 262.488281 73.027344 262.386719 72.703125 262.253906 C 72.375 262.117188 72.066406 261.953125 71.773438 261.757812 C 71.480469 261.558594 71.210938 261.339844 70.960938 261.089844 C 70.710938 260.839844 70.488281 260.570312 70.292969 260.277344 C 70.097656 259.980469 69.933594 259.671875 69.796875 259.347656 C 69.664062 259.023438 69.558594 258.6875 69.492188 258.339844 C 69.421875 257.996094 69.386719 257.644531 69.386719 257.292969 L 69.386719 118.03125 L 177.539062 203.222656 C 178.242188 203.78125 178.988281 204.273438 179.777344 204.707031 C 180.5625 205.136719 181.378906 205.5 182.230469 205.792969 C 183.078125 206.089844 183.945312 206.3125 184.828125 206.460938 C 185.714844 206.609375 186.605469 206.683594 187.503906 206.683594 C 188.402344 206.683594 189.292969 206.609375 190.179688 206.457031 C 191.0625 206.308594 191.929688 206.085938 192.777344 205.792969 C 193.625 205.496094 194.441406 205.132812 195.230469 204.703125 C 196.015625 204.269531 196.761719 203.773438 197.464844 203.21875 L 305.613281 118.027344 Z M 305.613281 257.292969 " fill-opacity="1" fill-rule="nonzero"/></svg>