<svg width="300" height="300" viewBox="0 0 300 300" fill="none" xmlns="http://www.w3.org/2000/svg">
<g clip-path="url(#clip0_78_309)">
<path d="M292.794 274.072C292.794 282.156 285.625 288.734 276.809 288.734H23.1781C14.3656 288.734 7.19375 282.156 7.19375 274.072V263.969H117.425C118.416 270.006 123.178 274.597 128.891 274.597H172.75C178.722 274.597 183.703 270.006 184.741 263.969H292.794V274.072ZM180.103 137.884V221.747C180.103 225.919 176.722 229.303 172.55 229.303C169.153 229.303 166.178 227.038 165.272 223.766V93.7157C166.384 89.6938 170.544 87.3375 174.566 88.45C177.838 89.3563 180.103 92.3344 180.103 95.7313V137.884ZM187.3 142.203L219.419 148.081V167.016L187.3 172.891V142.203ZM157.794 101.519V218.053L84.9344 185.422V134.15L157.794 101.519ZM22.775 186.725C25.9219 188.281 29.3094 189.284 32.7969 189.694V232.934C32.8 243.816 41.6188 252.634 52.5 252.634C63.375 252.628 72.1875 243.813 72.1906 232.934V189.903H77.7406V190.081L158.5 226.256C160.988 234.013 169.294 238.284 177.053 235.797C183.159 233.838 187.297 228.159 187.297 221.747V180.209L223.659 173.553C225.369 173.241 226.609 171.753 226.609 170.016V145.084C226.609 143.344 225.369 141.856 223.659 141.547L187.297 134.888V95.7282C187.297 87.5813 180.691 80.975 172.544 80.975C165.234 80.975 159.028 86.3282 157.956 93.5625L119.772 110.663H82.4094V117.859H103.706L80.575 128.219H58.05V11.3657H182.25V69.4125C182.25 71.4 183.859 73.0094 185.847 73.0094H243.831V243.941H251.025V102.816H276.259V256.775H181.344C179.356 256.775 177.747 258.388 177.747 260.372V261.638C177.747 264.816 175.509 267.4 172.75 267.4H128.891C126.475 267.4 124.431 264.763 124.431 261.638V260.372C124.431 258.388 122.819 256.775 120.834 256.775H22.775V186.725ZM64.9969 189.903V232.934C64.9969 239.841 59.4 245.441 52.4969 245.441C45.5906 245.441 39.9938 239.841 39.9938 232.934V189.903H64.9969ZM12.7563 159.063C12.7531 155.15 13.7219 151.3 15.5813 147.859C17.325 144.638 19.7875 141.863 22.775 139.747C26.7563 136.922 31.5156 135.409 36.3969 135.416H77.7375V182.706H36.3969C31.5156 182.713 26.7563 181.2 22.775 178.378C19.7875 176.263 17.325 173.484 15.5813 170.263C13.7219 166.822 12.7531 162.972 12.7563 159.063ZM22.775 102.813H50.8563V128.219H36.3969C31.6719 128.216 27.0094 129.303 22.775 131.397V102.813ZM36.8625 84.5125H50.8563V95.6188H23.1906C24.7188 89.2407 30.2688 84.5125 36.8625 84.5125ZM238.747 65.8125H189.444V16.4563L238.747 65.8125ZM262.163 84.5125C268.766 84.5125 274.316 89.2407 275.844 95.6157H251.025V84.5125H262.163ZM296.391 256.772H283.453V99.1625C283.453 87.1125 273.903 77.3157 262.163 77.3157H251.025V69.4063C251.025 69.3688 251.022 69.3344 251.019 69.2969C251.019 69.2469 251.016 69.2 251.013 69.1532C251.013 69.1219 251.013 69.0875 251.006 69.0594C250.994 68.9375 250.975 68.825 250.959 68.7094C250.941 68.5938 250.906 68.4813 250.875 68.375C250.863 68.3219 250.841 68.2719 250.825 68.225L250.813 68.1875C250.641 67.675 250.353 67.2094 249.972 66.825L188.394 5.2219C188.328 5.15627 188.263 5.0969 188.188 5.0344C188.153 5.00003 188.113 4.96878 188.069 4.93127C188.047 4.91878 188.025 4.90315 188.003 4.88752C187.981 4.8719 187.963 4.8594 187.944 4.8469C187.903 4.81878 187.863 4.7844 187.822 4.7594C187.741 4.70627 187.659 4.65627 187.572 4.61252C187.55 4.60002 187.531 4.58752 187.506 4.57815C187.413 4.52502 187.313 4.47815 187.213 4.43752C187.172 4.41878 187.131 4.4094 187.091 4.39065L187.022 4.36878C186.975 4.35315 186.931 4.33127 186.881 4.31565C186.778 4.28752 186.675 4.26252 186.569 4.24065L186.544 4.23752C186.419 4.21252 186.291 4.19378 186.163 4.1844C186.141 4.1844 186.119 4.1844 186.097 4.18127C186.056 4.18127 186.019 4.17502 185.978 4.17502C185.934 4.1719 185.897 4.16565 185.856 4.16565H54.4531C52.4688 4.16565 50.8563 5.77503 50.8563 7.76565V77.3157H36.8625C25.125 77.3157 15.5813 87.1125 15.5813 99.2157V136.334C3.03125 147.803 2.15312 167.275 13.6188 179.828C14.2438 180.509 14.8969 181.166 15.5813 181.791V256.772H3.59688C1.6125 256.772 0 258.384 0 260.372V274.075C0 286.128 10.3969 295.931 23.1781 295.931H276.809C289.591 295.931 299.988 286.125 299.988 274.075V260.372C299.988 258.384 298.375 256.772 296.391 256.772Z" fill="white"/>
<path d="M195.862 84.1094H220.372V91.3063H195.862V84.1094Z" fill="white"/>
<path d="M82.4092 84.1094H145.294V91.3063H82.4092V84.1094Z" fill="white"/>
<path d="M195.862 110.666H220.372V117.863H195.862V110.666Z" fill="white"/>
<path d="M152.869 33.1188H168.187V40.3125H152.869V33.1188Z" fill="white"/>
<path d="M81.9561 33.1188H142.09V40.3125H81.9561V33.1188Z" fill="white"/>
<path d="M126.688 59.6719H168.188V66.8688H126.688V59.6719Z" fill="white"/>
<path d="M81.9561 59.6719H121.772V66.8688H81.9561V59.6719Z" fill="white"/>
</g>
<defs>
<clipPath id="clip0_78_309">
<rect width="300" height="300" fill="white"/>
</clipPath>
</defs>
</svg>
