<svg width="300" height="300" viewBox="0 0 300 300" fill="none" xmlns="http://www.w3.org/2000/svg">
<g clip-path="url(#clip0_78_299)">
<path d="M300 147.206C300 66.2687 234.116 0.334351 153.238 0.334351C138.434 0.334351 123.813 2.55623 109.747 7.0031C108.266 5.8906 106.416 5.14998 104.566 5.14998H72.1781C67.55 5.14998 63.85 8.8531 63.85 13.4844V30.8937C27.3906 58.675 6.47813 101.091 6.47813 147.206C6.47813 148.691 6.47813 149.984 6.47813 151.469L1.10938 153.503C0.36875 153.691 0 154.431 0 155.172V176.1C0 176.841 0.36875 177.581 1.10938 177.769L10.3625 181.472C12.7688 191.659 16.2875 201.475 20.7281 210.922L17.7656 217.959C17.3969 218.7 17.5812 219.441 18.1375 219.997L32.7563 234.812C33.3125 235.369 34.0531 235.553 34.7938 235.184L35.1625 234.997C61.6281 270.559 104.381 294.266 152.869 294.266C233.928 294.081 300 228.331 300 147.206ZM296.3 147.206C296.3 187.028 280.013 223.144 253.547 249.075H221.716L225.788 238.516C228.378 237.775 230.784 236.666 233.003 235.553L245.775 241.109C246.516 241.481 247.256 241.294 247.809 240.741L257.25 231.294C257.803 230.737 257.988 229.997 257.619 229.256L252.066 216.478C253.178 214.253 254.288 211.847 255.028 209.253L267.981 204.069C268.722 203.881 269.094 203.141 269.094 202.4V188.881C269.094 188.141 268.722 187.4 267.981 187.212L255.028 182.028C254.288 179.434 253.178 177.028 252.066 174.803L257.619 162.025C257.988 161.284 257.803 160.544 257.25 159.987L247.809 150.541C247.256 149.984 246.516 149.8 245.775 150.172L233.003 155.728C230.784 154.616 228.378 153.503 225.788 152.762L220.603 139.8C220.419 139.059 219.678 138.687 218.938 138.687H215.978V102.572H222.084C226.713 102.572 230.413 98.8656 230.413 94.2375V62.0094C230.413 57.3781 226.713 53.675 222.084 53.675H215.978V52.3781C215.978 42.5625 208.019 34.4125 198.025 34.4125H112.709V13.3C112.709 12.1875 112.522 11.075 111.969 10.15C125.294 6.07498 138.988 4.03748 153.053 4.03748C232.263 4.03748 296.3 68.3062 296.3 147.206ZM153.238 290.375C118.816 290.375 84.0219 277.781 56.4469 252.778C75.5094 252.778 230.597 252.778 249.847 252.778C223.934 276.672 189.513 290.375 153.238 290.375ZM91.7938 234.812V225.553H106.6C106.6 241.85 105.675 244.816 109.747 249.075H106.231C98.2719 249.075 91.7938 242.778 91.7938 234.812ZM104.566 53.8594C109.191 53.8594 112.894 50.1562 112.894 45.525V38.1187H198.397C206.169 38.1187 212.647 44.6 212.647 52.3781V53.675H190.069C185.625 53.675 182.109 57.1937 181.925 61.6406H91.7938V53.8594H104.566ZM248.734 175.916C250.031 178.322 251.325 181.1 252.066 184.066C252.253 184.619 252.622 184.991 253.178 185.175L265.763 190.178V201.291L253.178 206.291C252.622 206.475 252.253 206.847 252.066 207.4C251.141 210.178 250.031 212.956 248.734 215.55C248.55 216.106 248.366 216.662 248.734 217.219L254.103 229.628L246.328 237.406L233.928 232.034C233.375 231.85 232.819 231.85 232.263 232.034C229.672 233.516 226.897 234.628 224.122 235.369C223.566 235.553 223.197 235.925 223.009 236.481L218.013 249.075H209.131C211.906 247.037 214.128 243.887 215.238 240.369C215.238 240.184 215.422 239.812 215.422 239.628C215.606 239.072 215.606 238.516 215.794 237.962C215.794 237.775 215.978 237.406 215.978 237.222C216.163 236.481 216.163 235.737 216.163 234.812V221.106C228.563 219.256 238 208.328 238 195.734C238 182.953 228.563 172.212 216.163 170.359V142.206H217.828L222.825 154.8C223.009 155.356 223.381 155.728 223.934 155.912C226.897 156.837 229.672 157.95 232.078 159.247C232.634 159.431 233.191 159.616 233.744 159.247L246.144 153.875L253.919 161.653L248.55 174.062C248.55 174.803 248.55 175.359 248.734 175.916ZM110.119 241.294V234.444H133.991V241.294C133.991 245.556 130.475 249.075 126.219 249.075H117.891C113.634 249.075 110.119 245.556 110.119 241.294ZM110.119 122.575H133.991V230.922H110.119V122.575ZM111.044 119.056L122.147 94.4219L133.066 119.056H111.044ZM137.694 225.553H212.647V234.812C212.647 235.553 212.647 236.109 212.463 236.85C211.538 243.703 205.613 249.075 198.397 249.075H134.547C138.434 245 137.694 242.778 137.694 225.553ZM216.163 173.878C226.528 175.731 234.484 184.806 234.484 195.547C234.484 206.291 226.528 215.55 216.163 217.219V173.878ZM212.647 140.541V222.034H137.694V120.906C137.694 120.722 137.694 120.537 137.506 120.353L123.813 89.4219C123.444 88.6812 122.888 88.3094 122.147 88.3094C121.406 88.3094 120.85 88.6812 120.481 89.4219L106.6 120.166C106.6 120.353 106.416 120.537 106.416 120.722V221.847H91.7938V65.3437H181.741V79.975H163.972C159.347 79.975 155.644 83.6781 155.644 88.3094V120.353C155.644 124.981 159.347 128.687 163.972 128.687H196.359C200.988 128.687 204.688 124.981 204.688 120.353V102.572H212.831V140.541H212.647ZM190.069 102.572H200.988V120.353C200.988 122.944 198.95 124.981 196.359 124.981H163.972C161.381 124.981 159.347 122.944 159.347 120.353V88.125C159.347 85.5312 161.381 83.4937 163.972 83.4937H181.741V94.4219C181.741 98.8656 185.441 102.572 190.069 102.572ZM214.497 98.8656C214.497 98.8656 214.869 98.8656 202.838 98.8656H190.253C187.663 98.8656 185.625 96.8281 185.625 94.2375V62.0094C185.625 59.4156 187.663 57.3781 190.253 57.3781H222.641C225.231 57.3781 227.266 59.4156 227.266 62.0094V94.4219C227.266 97.0156 225.231 99.0531 222.641 99.0531C222.084 98.8656 214.128 98.8656 214.497 98.8656ZM88.2781 200.734C87.9094 200.734 87.725 200.734 87.3531 200.734C67.9219 200.734 52.1906 184.991 52.1906 165.544C52.1906 146.097 67.9219 130.353 87.3531 130.353C87.725 130.353 88.0938 130.353 88.2781 130.353V200.734ZM67.55 13.3C67.55 10.7062 69.5875 8.66873 72.1781 8.66873H104.566C107.156 8.66873 109.191 10.7062 109.191 13.3V45.7125C109.191 48.3031 107.156 50.3406 104.566 50.3406H72.3625C69.7719 50.3406 67.7375 48.3031 67.7375 45.7125V13.3H67.55ZM10.1781 147.206C10.1781 103.128 29.7969 62.5656 64.0344 35.3406V45.7125C64.0344 50.3406 67.7375 54.0469 72.3625 54.0469H88.2781V78.6781H76.8031C76.0656 78.6781 75.325 79.05 75.1375 79.7906L66.9969 100.35C62.925 101.644 58.8531 103.312 55.15 105.166L34.9781 96.275C34.2375 95.9031 33.4969 96.0875 32.9438 96.6437L18.3219 111.275C17.7656 111.831 17.5813 112.572 17.9531 113.312L26.65 133.503C24.6156 137.206 22.95 141.097 21.8375 145.356L10.1781 149.984C10.1781 149.059 10.1781 148.134 10.1781 147.206ZM14.6219 182.953L21.6531 185.731C22.95 189.806 24.6156 193.881 26.4656 197.584L22.7625 206.291C19.4312 198.881 16.6562 191.103 14.6219 182.953ZM21.8375 218.144L24.8 211.291L30.5375 198.141C30.7219 197.584 30.7219 197.028 30.5375 196.475C28.3156 192.584 26.65 188.141 25.3563 183.694C25.1688 183.137 24.8 182.769 24.2438 182.584L3.8875 174.803V156.469L24.0594 148.503C24.6156 148.319 24.9844 147.947 25.1688 147.394C26.4656 142.947 28.3156 138.503 30.3531 134.612C30.5375 134.056 30.7219 133.503 30.3531 132.947L21.8375 113.128L34.7938 100.162L54.5969 108.684C55.15 108.869 55.7063 108.869 56.2625 108.684C60.1469 106.459 64.5906 104.794 69.0313 103.312C69.5875 103.128 69.9563 102.756 70.1406 102.2L78.1 82.0125H88.2781V126.834C87.9094 126.834 87.725 126.834 87.3531 126.834C66.0719 126.834 48.675 144.244 48.675 165.544C48.675 186.844 66.0719 204.253 87.3531 204.253C87.725 204.253 88.0938 204.253 88.2781 204.253V223.7C88.2781 234.256 86.9844 242.591 95.3125 249.075H78.1L70.1406 228.887C69.9563 228.331 69.5875 227.959 69.0313 227.775C64.5906 226.478 60.1469 224.625 56.2625 222.403C55.7063 222.219 55.15 222.034 54.5969 222.403L34.7938 230.922L21.8375 218.144ZM38.8656 233.331L55.15 226.294C58.8531 228.331 62.7375 229.997 66.9969 231.294L74.0281 249.259H52.7438C47.7469 244.259 43.1219 238.887 38.8656 233.331Z" fill="white"/>
<path d="M148.981 263.706C148.981 262.781 148.241 261.853 147.131 261.853C100.494 261.853 101.419 261.112 101.419 263.706C101.419 264.631 102.159 265.559 103.269 265.559H147.316C148.241 265.559 148.981 264.819 148.981 263.706Z" fill="white"/>
<path d="M163.419 263.706C163.419 262.781 162.678 261.853 161.566 261.853H154.35C153.425 261.853 152.5 262.594 152.5 263.706C152.5 264.631 153.238 265.559 154.35 265.559H161.566C162.494 265.559 163.419 264.819 163.419 263.706Z" fill="white"/>
<path d="M167.675 265.559H172.488C173.413 265.559 174.338 264.819 174.338 263.706C174.338 262.781 173.597 261.853 172.488 261.853H167.675C166.75 261.853 165.825 262.594 165.825 263.706C165.825 264.819 166.75 265.559 167.675 265.559Z" fill="white"/>
<path d="M159.347 270.744C158.422 270.744 157.497 271.484 157.497 272.597C157.497 273.522 158.235 274.447 159.347 274.447C205.985 274.447 205.06 275.191 205.06 272.597C205.06 270.003 205.8 270.744 159.347 270.744Z" fill="white"/>
<path d="M152.312 270.744H145.097C144.169 270.744 143.244 271.484 143.244 272.597C143.244 273.522 143.984 274.447 145.097 274.447H152.312C153.237 274.447 154.166 273.706 154.166 272.597C153.978 271.669 153.237 270.744 152.312 270.744Z" fill="white"/>
<path d="M138.803 270.744H133.991C133.066 270.744 132.141 271.484 132.141 272.597C132.141 273.522 132.881 274.447 133.991 274.447H138.803C139.728 274.447 140.653 273.706 140.653 272.597C140.653 271.669 139.728 270.744 138.803 270.744Z" fill="white"/>
<path d="M140.1 51.0813H164.344C165.269 51.0813 166.194 50.3407 166.194 49.2313C166.194 48.1188 165.453 47.3782 164.344 47.3782H140.1C139.172 47.3782 138.247 48.1188 138.247 49.2313C138.247 50.3407 138.988 51.0813 140.1 51.0813Z" fill="white"/>
<path d="M209.5 63.3062C208.944 62.75 208.206 62.75 207.466 62.9343C206.725 63.3062 206.353 63.8625 206.353 64.6031V81.2718C205.059 80.7156 203.578 80.1593 202.097 80.1593C197.656 80.1593 194.141 82.9375 194.141 86.4562C194.141 94.7937 209.872 94.9781 209.872 86.4562V68.4906L214.869 72.9375C215.606 73.6781 216.719 73.4937 217.459 72.7531C218.2 72.0125 218.013 70.9 217.272 70.1593L209.5 63.3062ZM202.281 89.4218C200.063 89.4218 198.025 88.125 198.025 86.6437C198.025 85.1625 200.063 83.8656 202.281 83.8656C204.503 83.8656 206.541 85.1625 206.541 86.6437C206.541 88.125 204.503 89.4218 202.281 89.4218Z" fill="white"/>
</g>
<defs>
<clipPath id="clip0_78_299">
<rect width="300" height="300" fill="white"/>
</clipPath>
</defs>
</svg>
