<svg xmlns="http://www.w3.org/2000/svg" xmlns:xlink="http://www.w3.org/1999/xlink" width="500" zoomAndPan="magnify" viewBox="0 0 375 374.999991" height="500" preserveAspectRatio="xMidYMid meet" version="1.0"><path fill="#ffffff" d="M 279.988281 146.257812 C 279.988281 148.035156 279.988281 149.90625 279.988281 151.683594 C 280 153.660156 279.964844 155.636719 279.878906 157.613281 C 279.792969 159.585938 279.660156 161.558594 279.476562 163.527344 C 279.292969 165.496094 279.0625 167.460938 278.78125 169.417969 C 278.5 171.375 278.171875 173.324219 277.796875 175.265625 C 277.421875 177.207031 276.996094 179.136719 276.523438 181.058594 C 276.054688 182.976562 275.535156 184.886719 274.96875 186.78125 C 274.402344 188.675781 273.789062 190.554688 273.132812 192.417969 C 272.472656 194.28125 271.769531 196.128906 271.015625 197.957031 C 270.265625 199.789062 269.472656 201.597656 268.632812 203.386719 C 267.792969 205.175781 266.910156 206.945312 265.980469 208.691406 C 265.054688 210.4375 264.085938 212.160156 263.074219 213.859375 C 262.0625 215.558594 261.007812 217.230469 259.910156 218.875 C 258.816406 220.523438 257.683594 222.140625 256.507812 223.730469 C 255.332031 225.320312 254.117188 226.882812 252.867188 228.414062 C 251.613281 229.941406 250.324219 231.441406 249 232.90625 C 247.671875 234.375 246.3125 235.808594 244.914062 237.207031 C 243.515625 238.605469 242.085938 239.96875 240.621094 241.296875 C 239.15625 242.625 237.660156 243.917969 236.132812 245.171875 C 234.605469 246.425781 233.046875 247.644531 231.457031 248.820312 C 229.867188 249.996094 228.253906 251.136719 226.609375 252.234375 C 224.960938 253.332031 223.292969 254.386719 221.59375 255.402344 C 219.898438 256.417969 218.175781 257.390625 216.433594 258.320312 C 214.6875 259.25 212.921875 260.136719 211.132812 260.976562 C 209.34375 261.820312 207.535156 262.617188 205.707031 263.371094 C 203.878906 264.125 202.03125 264.832031 200.167969 265.492188 C 198.304688 266.15625 196.425781 266.769531 194.535156 267.339844 C 192.640625 267.910156 190.734375 268.429688 188.8125 268.90625 C 186.894531 269.378906 184.964844 269.804688 183.023438 270.1875 C 181.082031 270.566406 179.132812 270.894531 177.179688 271.179688 C 175.222656 271.460938 173.257812 271.695312 171.289062 271.882812 C 169.320312 272.070312 167.347656 272.207031 165.375 272.292969 C 163.398438 272.382812 161.421875 272.421875 159.445312 272.414062 C 153.722656 272.445312 148.023438 272.074219 142.355469 271.289062 C 136.6875 270.507812 131.101562 269.324219 125.601562 267.742188 C 120.101562 266.160156 114.742188 264.191406 109.523438 261.84375 C 104.304688 259.492188 99.28125 256.78125 94.453125 253.710938 C 97.808594 254.089844 101.175781 254.273438 104.550781 254.269531 C 109.289062 254.285156 114 253.90625 118.675781 253.132812 C 123.351562 252.359375 127.929688 251.199219 132.410156 249.652344 C 136.890625 248.109375 141.214844 246.203125 145.375 243.933594 C 149.535156 241.664062 153.476562 239.0625 157.199219 236.128906 C 155 236.066406 152.816406 235.835938 150.652344 235.4375 C 148.488281 235.039062 146.371094 234.472656 144.292969 233.742188 C 142.214844 233.011719 140.207031 232.125 138.269531 231.085938 C 136.332031 230.042969 134.484375 228.855469 132.730469 227.527344 C 130.976562 226.199219 129.335938 224.742188 127.808594 223.15625 C 126.28125 221.574219 124.882812 219.878906 123.621094 218.078125 C 122.355469 216.277344 121.238281 214.386719 120.265625 212.414062 C 119.296875 210.4375 118.484375 208.398438 117.832031 206.296875 C 120.457031 206.789062 123.105469 207.035156 125.78125 207.042969 C 129.421875 207.085938 133.007812 206.648438 136.535156 205.734375 C 135.34375 205.496094 134.167969 205.207031 133.003906 204.871094 C 131.839844 204.53125 130.695312 204.140625 129.5625 203.703125 C 128.433594 203.265625 127.324219 202.78125 126.234375 202.25 C 125.144531 201.714844 124.082031 201.136719 123.042969 200.511719 C 122.003906 199.890625 120.992188 199.222656 120.011719 198.511719 C 119.03125 197.800781 118.078125 197.046875 117.164062 196.253906 C 116.246094 195.464844 115.363281 194.632812 114.519531 193.765625 C 113.671875 192.898438 112.863281 191.992188 112.097656 191.054688 C 111.328125 190.117188 110.601562 189.148438 109.914062 188.152344 C 109.230469 187.152344 108.589844 186.125 107.992188 185.066406 C 107.394531 184.011719 106.84375 182.933594 106.339844 181.832031 C 105.832031 180.730469 105.378906 179.609375 104.96875 178.46875 C 104.5625 177.324219 104.203125 176.167969 103.894531 174.996094 C 103.585938 173.824219 103.324219 172.640625 103.117188 171.449219 C 102.910156 170.253906 102.753906 169.050781 102.652344 167.84375 C 102.546875 166.636719 102.496094 165.425781 102.492188 164.214844 L 102.492188 163.652344 C 108.316406 166.878906 114.550781 168.65625 121.195312 168.984375 C 120.089844 168.234375 119.019531 167.4375 117.984375 166.589844 C 116.953125 165.738281 115.964844 164.84375 115.015625 163.902344 C 114.066406 162.957031 113.167969 161.972656 112.3125 160.945312 C 111.457031 159.917969 110.652344 158.851562 109.902344 157.746094 C 109.148438 156.640625 108.445312 155.503906 107.800781 154.332031 C 107.15625 153.164062 106.566406 151.964844 106.035156 150.738281 C 105.5 149.511719 105.027344 148.265625 104.613281 146.992188 C 104.199219 145.722656 103.847656 144.433594 103.554688 143.128906 C 103.261719 141.824219 103.03125 140.511719 102.863281 139.183594 C 102.695312 137.855469 102.59375 136.527344 102.550781 135.191406 C 102.507812 133.855469 102.53125 132.519531 102.613281 131.183594 C 102.699219 129.851562 102.847656 128.523438 103.058594 127.203125 C 103.265625 125.882812 103.539062 124.574219 103.875 123.28125 C 104.207031 121.988281 104.601562 120.710938 105.058594 119.453125 C 105.511719 118.195312 106.023438 116.964844 106.597656 115.753906 C 107.167969 114.546875 107.796875 113.367188 108.480469 112.21875 C 111.132812 115.488281 113.953125 118.605469 116.9375 121.578125 C 119.917969 124.550781 123.050781 127.359375 126.328125 130 C 129.605469 132.644531 133.011719 135.109375 136.546875 137.394531 C 140.082031 139.683594 143.726562 141.777344 147.484375 143.679688 C 151.238281 145.585938 155.085938 147.285156 159.019531 148.789062 C 162.953125 150.289062 166.953125 151.578125 171.023438 152.660156 C 175.09375 153.742188 179.207031 154.605469 183.367188 155.253906 C 187.527344 155.90625 191.710938 156.335938 195.917969 156.546875 C 195.183594 153.472656 194.8125 150.355469 194.792969 147.195312 C 194.796875 145.078125 194.957031 142.976562 195.277344 140.886719 C 195.59375 138.796875 196.0625 136.742188 196.6875 134.722656 C 197.3125 132.699219 198.085938 130.738281 199.003906 128.832031 C 199.921875 126.929688 200.976562 125.101562 202.164062 123.355469 C 203.355469 121.609375 204.671875 119.957031 206.105469 118.40625 C 207.542969 116.855469 209.089844 115.421875 210.742188 114.101562 C 212.390625 112.78125 214.132812 111.589844 215.960938 110.53125 C 217.792969 109.46875 219.691406 108.550781 221.65625 107.773438 C 223.621094 106.996094 225.636719 106.371094 227.695312 105.894531 C 229.757812 105.417969 231.839844 105.097656 233.949219 104.933594 C 236.058594 104.769531 238.164062 104.765625 240.273438 104.914062 C 242.382812 105.066406 244.46875 105.371094 246.535156 105.832031 C 248.597656 106.296875 250.613281 106.910156 252.585938 107.671875 C 254.558594 108.4375 256.460938 109.34375 258.296875 110.390625 C 260.136719 111.441406 261.882812 112.617188 263.542969 113.929688 C 265.203125 115.238281 266.757812 116.664062 268.203125 118.203125 C 277.9375 116.222656 287.039062 112.636719 295.511719 107.449219 C 294.726562 109.890625 293.726562 112.238281 292.515625 114.5 C 291.304688 116.757812 289.898438 118.890625 288.304688 120.894531 C 286.707031 122.898438 284.941406 124.742188 283.007812 126.429688 C 281.078125 128.113281 279.011719 129.613281 276.808594 130.921875 C 285.273438 129.921875 293.410156 127.710938 301.214844 124.28125 C 295.457031 132.882812 288.382812 140.207031 279.988281 146.257812 Z M 279.988281 146.257812 " fill-opacity="1" fill-rule="nonzero"/><path fill="#ffffff" d="M 190.117188 369.109375 C 187.097656 369.109375 184.078125 369.035156 181.058594 368.886719 C 178.042969 368.738281 175.03125 368.515625 172.023438 368.21875 C 169.019531 367.921875 166.019531 367.554688 163.03125 367.109375 C 160.042969 366.667969 157.066406 366.152344 154.105469 365.5625 C 151.140625 364.972656 148.195312 364.308594 145.265625 363.578125 C 142.332031 362.84375 139.421875 362.035156 136.53125 361.160156 C 133.640625 360.28125 130.773438 359.335938 127.929688 358.316406 C 125.082031 357.300781 122.265625 356.210938 119.476562 355.054688 C 116.683594 353.898438 113.921875 352.675781 111.191406 351.382812 C 108.460938 350.09375 105.761719 348.734375 103.097656 347.3125 C 100.433594 345.886719 97.804688 344.398438 95.214844 342.84375 C 92.625 341.292969 90.070312 339.675781 87.558594 337.996094 C 85.046875 336.320312 82.578125 334.578125 80.152344 332.78125 C 77.726562 330.980469 75.34375 329.121094 73.007812 327.207031 C 70.671875 325.289062 68.386719 323.316406 66.148438 321.289062 C 63.910156 319.257812 61.722656 317.175781 59.585938 315.039062 C 57.449219 312.902344 55.367188 310.714844 53.339844 308.476562 C 51.308594 306.238281 49.335938 303.953125 47.421875 301.617188 C 45.503906 299.28125 43.644531 296.902344 41.84375 294.472656 C 40.046875 292.046875 38.308594 289.578125 36.628906 287.066406 C 34.949219 284.554688 33.335938 282.003906 31.78125 279.410156 C 30.226562 276.820312 28.738281 274.191406 27.316406 271.527344 C 25.890625 268.863281 24.53125 266.164062 23.242188 263.433594 C 21.949219 260.703125 20.726562 257.941406 19.570312 255.152344 C 18.414062 252.359375 17.328125 249.542969 16.308594 246.699219 C 15.289062 243.851562 14.34375 240.984375 13.464844 238.09375 C 12.589844 235.203125 11.785156 232.292969 11.050781 229.363281 C 10.316406 226.429688 9.652344 223.484375 9.066406 220.519531 C 8.476562 217.558594 7.957031 214.582031 7.515625 211.59375 C 7.070312 208.605469 6.703125 205.609375 6.40625 202.601562 C 6.109375 199.59375 5.886719 196.582031 5.738281 193.566406 C 5.589844 190.546875 5.515625 187.527344 5.515625 184.507812 C 5.515625 181.488281 5.589844 178.46875 5.738281 175.449219 C 5.886719 172.433594 6.109375 169.421875 6.40625 166.414062 C 6.703125 163.40625 7.070312 160.410156 7.515625 157.421875 C 7.957031 154.433594 8.476562 151.457031 9.066406 148.492188 C 9.652344 145.53125 10.316406 142.582031 11.050781 139.652344 C 11.785156 136.722656 12.589844 133.8125 13.464844 130.921875 C 14.34375 128.03125 15.289062 125.160156 16.308594 122.316406 C 17.328125 119.472656 18.414062 116.65625 19.570312 113.863281 C 20.726562 111.074219 21.949219 108.3125 23.242188 105.582031 C 24.53125 102.847656 25.890625 100.152344 27.316406 97.488281 C 28.738281 94.824219 30.226562 92.195312 31.78125 89.605469 C 33.335938 87.011719 34.949219 84.460938 36.628906 81.949219 C 38.308594 79.4375 40.046875 76.96875 41.84375 74.539062 C 43.644531 72.113281 45.503906 69.734375 47.421875 67.398438 C 49.335938 65.0625 51.308594 62.777344 53.339844 60.535156 C 55.367188 58.296875 57.449219 56.109375 59.585938 53.976562 C 61.722656 51.839844 63.910156 49.757812 66.148438 47.726562 C 68.386719 45.699219 70.671875 43.726562 73.007812 41.808594 C 75.34375 39.890625 77.726562 38.035156 80.152344 36.234375 C 82.578125 34.433594 85.046875 32.695312 87.558594 31.015625 C 90.070312 29.339844 92.625 27.722656 95.214844 26.171875 C 97.804688 24.617188 100.433594 23.128906 103.097656 21.703125 C 105.761719 20.28125 108.460938 18.921875 111.191406 17.628906 C 113.921875 16.339844 116.683594 15.113281 119.476562 13.957031 C 122.265625 12.800781 125.082031 11.714844 127.929688 10.699219 C 130.773438 9.679688 133.640625 8.730469 136.53125 7.855469 C 139.421875 6.976562 142.332031 6.171875 145.265625 5.4375 C 148.195312 4.703125 151.140625 4.042969 154.105469 3.453125 C 157.066406 2.863281 160.042969 2.347656 163.03125 1.90625 C 166.019531 1.460938 169.019531 1.089844 172.023438 0.796875 C 175.03125 0.5 178.042969 0.277344 181.058594 0.128906 C 184.078125 -0.0195312 187.097656 -0.09375 190.117188 -0.09375 C 193.140625 -0.09375 196.160156 -0.0195312 199.175781 0.128906 C 202.195312 0.277344 205.207031 0.5 208.210938 0.796875 C 211.21875 1.089844 214.214844 1.460938 217.203125 1.90625 C 220.195312 2.347656 223.167969 2.863281 226.132812 3.453125 C 229.09375 4.042969 232.042969 4.703125 234.972656 5.4375 C 237.902344 6.171875 240.8125 6.976562 243.707031 7.855469 C 246.597656 8.730469 249.464844 9.679688 252.308594 10.699219 C 255.152344 11.714844 257.972656 12.800781 260.761719 13.957031 C 263.554688 15.113281 266.3125 16.339844 269.046875 17.628906 C 271.777344 18.921875 274.472656 20.28125 277.140625 21.703125 C 279.804688 23.128906 282.429688 24.617188 285.023438 26.171875 C 287.613281 27.722656 290.164062 29.339844 292.675781 31.015625 C 295.1875 32.695312 297.660156 34.433594 300.085938 36.234375 C 302.511719 38.035156 304.894531 39.890625 307.226562 41.808594 C 309.5625 43.726562 311.851562 45.699219 314.089844 47.726562 C 316.328125 49.757812 318.515625 51.839844 320.652344 53.976562 C 322.789062 56.109375 324.871094 58.296875 326.898438 60.535156 C 328.925781 62.777344 330.898438 65.0625 332.816406 67.398438 C 334.734375 69.734375 336.589844 72.113281 338.390625 74.539062 C 340.191406 76.96875 341.929688 79.4375 343.609375 81.949219 C 345.285156 84.460938 346.902344 87.011719 348.457031 89.605469 C 350.007812 92.195312 351.496094 94.824219 352.921875 97.488281 C 354.347656 100.152344 355.703125 102.847656 356.996094 105.582031 C 358.289062 108.3125 359.511719 111.074219 360.667969 113.863281 C 361.824219 116.65625 362.910156 119.472656 363.929688 122.316406 C 364.945312 125.160156 365.894531 128.03125 366.769531 130.921875 C 367.648438 133.8125 368.453125 136.722656 369.1875 139.652344 C 369.921875 142.582031 370.582031 145.53125 371.171875 148.492188 C 371.761719 151.457031 372.277344 154.433594 372.722656 157.421875 C 373.164062 160.410156 373.535156 163.40625 373.832031 166.414062 C 374.125 169.421875 374.347656 172.433594 374.496094 175.449219 C 374.644531 178.46875 374.71875 181.488281 374.71875 184.507812 C 374.71875 187.527344 374.640625 190.546875 374.492188 193.5625 C 374.34375 196.582031 374.121094 199.59375 373.820312 202.597656 C 373.523438 205.605469 373.152344 208.601562 372.710938 211.589844 C 372.265625 214.578125 371.746094 217.550781 371.15625 220.515625 C 370.566406 223.476562 369.902344 226.421875 369.167969 229.351562 C 368.433594 232.285156 367.628906 235.195312 366.75 238.082031 C 365.871094 240.972656 364.921875 243.839844 363.90625 246.683594 C 362.886719 249.527344 361.800781 252.347656 360.640625 255.136719 C 359.484375 257.925781 358.261719 260.6875 356.96875 263.417969 C 355.675781 266.148438 354.320312 268.84375 352.894531 271.507812 C 351.46875 274.171875 349.980469 276.800781 348.429688 279.390625 C 346.875 281.980469 345.257812 284.53125 343.578125 287.042969 C 341.902344 289.554688 340.164062 292.023438 338.363281 294.449219 C 336.5625 296.875 334.703125 299.257812 332.789062 301.59375 C 330.871094 303.925781 328.898438 306.214844 326.871094 308.453125 C 324.84375 310.691406 322.757812 312.875 320.625 315.011719 C 318.488281 317.148438 316.300781 319.230469 314.0625 321.257812 C 311.824219 323.289062 309.539062 325.261719 307.203125 327.175781 C 304.867188 329.09375 302.488281 330.953125 300.0625 332.75 C 297.636719 334.550781 295.167969 336.289062 292.65625 337.96875 C 290.144531 339.648438 287.59375 341.261719 285.003906 342.816406 C 282.410156 344.371094 279.785156 345.859375 277.121094 347.285156 C 274.457031 348.707031 271.757812 350.066406 269.027344 351.359375 C 266.296875 352.652344 263.539062 353.875 260.746094 355.03125 C 257.957031 356.1875 255.140625 357.277344 252.296875 358.292969 C 249.453125 359.3125 246.585938 360.261719 243.695312 361.140625 C 240.804688 362.015625 237.894531 362.824219 234.964844 363.558594 C 232.035156 364.292969 229.089844 364.957031 226.125 365.546875 C 223.164062 366.136719 220.1875 366.652344 217.199219 367.097656 C 214.210938 367.542969 211.214844 367.914062 208.210938 368.210938 C 205.203125 368.507812 202.191406 368.730469 199.175781 368.882812 C 196.15625 369.03125 193.140625 369.105469 190.117188 369.109375 Z M 190.117188 8.511719 C 187.238281 8.507812 184.355469 8.578125 181.480469 8.71875 C 178.601562 8.863281 175.726562 9.074219 172.859375 9.355469 C 169.992188 9.636719 167.132812 9.988281 164.28125 10.410156 C 161.429688 10.835938 158.59375 11.328125 155.765625 11.886719 C 152.941406 12.449219 150.128906 13.082031 147.332031 13.78125 C 144.539062 14.480469 141.761719 15.25 139.003906 16.085938 C 136.246094 16.921875 133.511719 17.824219 130.796875 18.796875 C 128.085938 19.765625 125.394531 20.800781 122.734375 21.90625 C 120.070312 23.007812 117.4375 24.175781 114.832031 25.40625 C 112.226562 26.640625 109.652344 27.933594 107.113281 29.292969 C 104.570312 30.652344 102.0625 32.070312 99.59375 33.550781 C 97.121094 35.035156 94.6875 36.574219 92.289062 38.175781 C 89.894531 39.777344 87.539062 41.4375 85.222656 43.152344 C 82.910156 44.867188 80.636719 46.640625 78.410156 48.46875 C 76.183594 50.296875 74 52.179688 71.863281 54.113281 C 69.730469 56.050781 67.644531 58.035156 65.605469 60.074219 C 63.566406 62.113281 61.582031 64.199219 59.644531 66.335938 C 57.710938 68.46875 55.828125 70.652344 54 72.878906 C 52.171875 75.105469 50.398438 77.378906 48.683594 79.695312 C 46.964844 82.007812 45.304688 84.363281 43.707031 86.761719 C 42.105469 89.15625 40.5625 91.589844 39.082031 94.0625 C 37.601562 96.535156 36.179688 99.042969 34.820312 101.582031 C 33.460938 104.125 32.167969 106.699219 30.933594 109.304688 C 29.703125 111.910156 28.535156 114.542969 27.433594 117.207031 C 26.328125 119.871094 25.292969 122.558594 24.320312 125.269531 C 23.351562 127.984375 22.445312 130.722656 21.609375 133.480469 C 20.773438 136.238281 20.003906 139.015625 19.304688 141.808594 C 18.605469 144.605469 17.972656 147.417969 17.410156 150.242188 C 16.847656 153.070312 16.355469 155.910156 15.933594 158.761719 C 15.511719 161.609375 15.15625 164.472656 14.875 167.339844 C 14.59375 170.207031 14.382812 173.082031 14.238281 175.960938 C 14.097656 178.839844 14.027344 181.71875 14.027344 184.601562 C 14.027344 187.484375 14.097656 190.363281 14.242188 193.242188 C 14.382812 196.121094 14.59375 198.996094 14.878906 201.867188 C 15.160156 204.734375 15.515625 207.59375 15.9375 210.445312 C 16.363281 213.296875 16.855469 216.136719 17.417969 218.964844 C 17.980469 221.792969 18.613281 224.601562 19.3125 227.398438 C 20.015625 230.195312 20.785156 232.972656 21.621094 235.730469 C 22.457031 238.488281 23.363281 241.226562 24.332031 243.9375 C 25.304688 246.652344 26.34375 249.34375 27.445312 252.003906 C 28.550781 254.667969 29.71875 257.300781 30.953125 259.90625 C 32.183594 262.511719 33.480469 265.085938 34.839844 267.628906 C 36.199219 270.171875 37.621094 272.679688 39.101562 275.152344 C 40.585938 277.621094 42.125 280.058594 43.726562 282.453125 C 45.328125 284.851562 46.988281 287.207031 48.707031 289.519531 C 50.425781 291.835938 52.199219 294.105469 54.027344 296.335938 C 55.855469 298.5625 57.738281 300.746094 59.675781 302.878906 C 61.609375 305.015625 63.597656 307.101562 65.636719 309.140625 C 67.675781 311.179688 69.761719 313.164062 71.898438 315.101562 C 74.035156 317.035156 76.214844 318.917969 78.445312 320.746094 C 80.671875 322.574219 82.945312 324.34375 85.261719 326.0625 C 87.578125 327.777344 89.933594 329.4375 92.328125 331.039062 C 94.726562 332.640625 97.160156 334.179688 99.632812 335.660156 C 102.105469 337.144531 104.613281 338.5625 107.15625 339.921875 C 109.699219 341.277344 112.273438 342.574219 114.878906 343.804688 C 117.484375 345.035156 120.117188 346.203125 122.78125 347.304688 C 125.445312 348.410156 128.132812 349.445312 130.847656 350.414062 C 133.5625 351.386719 136.296875 352.289062 139.054688 353.125 C 141.8125 353.960938 144.589844 354.726562 147.386719 355.429688 C 150.183594 356.128906 152.996094 356.757812 155.820312 357.320312 C 158.648438 357.878906 161.488281 358.371094 164.339844 358.792969 C 167.191406 359.214844 170.050781 359.566406 172.917969 359.851562 C 175.789062 360.132812 178.660156 360.34375 181.539062 360.484375 C 184.417969 360.625 187.296875 360.691406 190.179688 360.691406 C 193.0625 360.691406 195.945312 360.621094 198.820312 360.476562 C 201.699219 360.335938 204.574219 360.121094 207.441406 359.835938 C 210.3125 359.554688 213.171875 359.199219 216.019531 358.777344 C 218.871094 358.351562 221.710938 357.859375 224.539062 357.296875 C 227.363281 356.730469 230.175781 356.101562 232.96875 355.398438 C 235.765625 354.695312 238.542969 353.925781 241.300781 353.089844 C 244.058594 352.253906 246.792969 351.347656 249.507812 350.375 C 252.21875 349.402344 254.90625 348.363281 257.570312 347.261719 C 260.234375 346.15625 262.867188 344.988281 265.472656 343.753906 C 268.078125 342.523438 270.648438 341.226562 273.191406 339.867188 C 275.730469 338.503906 278.238281 337.085938 280.710938 335.601562 C 283.179688 334.117188 285.617188 332.578125 288.011719 330.972656 C 290.40625 329.371094 292.761719 327.710938 295.074219 325.992188 C 297.390625 324.277344 299.660156 322.503906 301.886719 320.671875 C 304.117188 318.84375 306.296875 316.960938 308.429688 315.023438 C 310.566406 313.085938 312.652344 311.101562 314.6875 309.0625 C 316.726562 307.023438 318.710938 304.933594 320.644531 302.796875 C 322.582031 300.660156 324.460938 298.480469 326.289062 296.25 C 328.117188 294.019531 329.886719 291.75 331.605469 289.433594 C 333.320312 287.117188 334.976562 284.761719 336.578125 282.363281 C 338.179688 279.964844 339.71875 277.53125 341.199219 275.058594 C 342.679688 272.585938 344.097656 270.078125 345.457031 267.535156 C 346.8125 264.992188 348.109375 262.417969 349.339844 259.8125 C 350.570312 257.207031 351.738281 254.570312 352.839844 251.910156 C 353.941406 249.246094 354.976562 246.558594 355.945312 243.84375 C 356.914062 241.128906 357.816406 238.390625 358.652344 235.632812 C 359.488281 232.875 360.253906 230.097656 360.953125 227.300781 C 361.652344 224.503906 362.28125 221.695312 362.84375 218.867188 C 363.402344 216.039062 363.894531 213.199219 364.316406 210.347656 C 364.738281 207.5 365.089844 204.636719 365.371094 201.769531 C 365.652344 198.902344 365.863281 196.027344 366 193.148438 C 366.140625 190.269531 366.210938 187.390625 366.210938 184.507812 C 366.207031 181.628906 366.132812 178.75 365.988281 175.871094 C 365.84375 172.996094 365.628906 170.125 365.34375 167.257812 C 365.058594 164.390625 364.703125 161.53125 364.277344 158.683594 C 363.855469 155.835938 363.359375 153 362.792969 150.171875 C 362.230469 147.347656 361.597656 144.539062 360.894531 141.746094 C 360.191406 138.953125 359.421875 136.179688 358.585938 133.421875 C 357.746094 130.667969 356.839844 127.933594 355.867188 125.222656 C 354.894531 122.511719 353.859375 119.824219 352.753906 117.164062 C 351.648438 114.503906 350.480469 111.871094 349.246094 109.269531 C 348.015625 106.664062 346.71875 104.09375 345.359375 101.554688 C 344 99.015625 342.578125 96.507812 341.097656 94.039062 C 339.613281 91.570312 338.074219 89.136719 336.472656 86.742188 C 334.871094 84.347656 333.210938 81.996094 331.496094 79.683594 C 329.777344 77.371094 328.003906 75.101562 326.175781 72.875 C 324.347656 70.648438 322.46875 68.46875 320.53125 66.335938 C 318.597656 64.203125 316.609375 62.117188 314.574219 60.082031 C 312.535156 58.042969 310.449219 56.058594 308.316406 54.125 C 306.179688 52.191406 304 50.308594 301.773438 48.484375 C 299.546875 46.65625 297.277344 44.886719 294.960938 43.167969 C 292.648438 41.453125 290.292969 39.796875 287.898438 38.195312 C 285.503906 36.597656 283.070312 35.054688 280.597656 33.574219 C 278.128906 32.09375 275.625 30.675781 273.082031 29.316406 C 270.542969 27.957031 267.96875 26.664062 265.367188 25.433594 C 262.761719 24.199219 260.128906 23.03125 257.46875 21.929688 C 254.808594 20.828125 252.121094 19.789062 249.410156 18.820312 C 246.699219 17.847656 243.964844 16.945312 241.207031 16.109375 C 238.453125 15.269531 235.675781 14.503906 232.882812 13.800781 C 230.089844 13.101562 227.277344 12.46875 224.453125 11.90625 C 221.628906 11.34375 218.792969 10.851562 215.941406 10.425781 C 213.09375 10.003906 210.234375 9.648438 207.371094 9.367188 C 204.503906 9.082031 201.632812 8.867188 198.753906 8.726562 C 195.878906 8.582031 193 8.511719 190.117188 8.511719 Z M 190.117188 8.511719 " fill-opacity="1" fill-rule="nonzero"/></svg>