<svg width="300" height="300" viewBox="0 0 300 300" fill="none" xmlns="http://www.w3.org/2000/svg">
<g clip-path="url(#clip0_78_263)">
<path d="M151.131 129.591C152.85 132.928 156.231 135 159.981 135H173.222C176.425 135 179.472 133.438 181.328 130.8L207.459 93.9844L233.653 130.8C235.528 133.438 238.575 135 241.778 135H255.019C258.769 135 262.147 132.928 263.866 129.591C265.606 126.25 265.312 122.266 263.144 119.2L226.365 67.4813L263.144 15.8C265.312 12.7344 265.606 8.75 263.866 5.40938C262.147 2.06875 258.769 0 255.019 0H241.778C238.575 0 235.528 1.5625 233.672 4.2L207.537 41.0156L181.347 4.2C179.472 1.5625 176.425 0 173.222 0H159.981C156.231 0 152.85 2.06875 151.131 5.40938C149.394 8.75 149.687 12.7344 151.856 15.8L156.503 22.325C158.084 24.5688 161.231 25.0969 163.475 23.4969C165.722 21.8938 166.25 18.7688 164.647 16.525L159.981 10L173.184 9.98125L199.375 46.8156C201.25 49.4344 204.278 51.0156 207.5 51.0156C210.722 51.0156 213.75 49.4344 215.606 46.8156L241.778 10L254.981 10.0188L218.222 61.7C215.762 65.175 215.762 69.825 218.222 73.3L255.019 125L241.815 125.019L215.625 88.1844C213.75 85.5656 210.722 83.9844 207.5 83.9844C204.278 83.9844 201.25 85.5656 199.394 88.1844L173.222 125L160.019 124.981L196.778 73.3C199.237 69.825 199.237 65.175 196.778 61.7L174.903 30.9563C173.3 28.7094 170.175 28.1844 167.928 29.7844C165.684 31.3656 165.156 34.4906 166.756 36.7375L188.631 67.5188L151.856 119.2C149.687 122.266 149.394 126.25 151.131 129.591Z" fill="white"/>
<path d="M60 0H45C39.4938 0 35 4.49375 35 10V85C35 98.7688 40.7625 112.069 50.8187 121.484C60.175 130.272 72.2062 135 84.9594 135C86.075 135 87.2062 134.959 88.3187 134.881C114.491 133.203 135 110.606 135 83.4563V50C135 47.2469 132.753 45 130 45C127.247 45 125 47.2469 125 50V83.4563C125 105.35 108.612 123.553 87.675 124.903C76.4656 125.663 65.8 121.834 57.6562 114.2C49.4906 106.544 45 96.1719 45 85V10H60V84.1406C60 97.3813 69.9219 108.691 82.5781 109.881C89.6094 110.547 96.6219 108.222 101.816 103.497C107.012 98.7688 110 92.0313 110 85V10H125V30C125 32.7531 127.247 35 130 35C132.753 35 135 32.7531 135 30V10C135 4.49375 130.506 0 125 0H110C104.491 0 100 4.49375 100 10V85C100 89.2188 98.2031 93.2625 95.0969 96.0938C91.9344 98.9844 87.85 100.313 83.5156 99.9219C75.9375 99.2188 70 92.2844 70 84.1406V10C70 4.49375 65.5062 0 60 0Z" fill="white"/>
<path d="M125 165H110C104.491 165 100 169.491 100 175V250C100 254.219 98.2031 258.263 95.0969 261.094C91.9344 263.966 87.85 265.313 83.5156 264.941C75.9375 264.219 70 257.284 70 249.141V175C70 169.491 65.5062 165 60 165H45C39.4938 165 35 169.491 35 175V250C35 263.769 40.7625 277.069 50.8187 286.484C60.175 295.272 72.2062 300 84.9594 300C86.075 300 87.2062 299.959 88.3187 299.881C114.491 298.203 135 275.606 135 248.456V215C135 212.247 132.753 210 130 210C127.247 210 125 212.247 125 215V248.456C125 270.35 108.612 288.553 87.675 289.903C76.4656 290.663 65.8 286.834 57.6562 279.178C49.4906 271.544 45 261.172 45 250V175H60V249.141C60 262.381 69.9219 273.691 82.5781 274.881C89.6094 275.566 96.6219 273.222 101.816 268.497C107.012 263.769 110 257.031 110 250V175H125V195C125 197.753 127.247 200 130 200C132.753 200 135 197.753 135 195V175C135 169.491 130.506 165 125 165Z" fill="white"/>
<path d="M255 165H165C159.491 165 155 169.491 155 175V190C155 195.506 159.491 200 165 200H195V265H165C159.491 265 155 269.491 155 275V290C155 295.506 159.491 300 165 300H255C260.506 300 265 295.506 265 290V275C265 269.491 260.506 265 255 265H225V230C225 227.247 222.753 225 220 225C217.247 225 215 227.247 215 230V265C215 270.506 219.491 275 225 275H255V290H165V275H195C200.506 275 205 270.506 205 265V200C205 194.491 200.506 190 195 190H165V175H255V190H225C219.491 190 215 194.491 215 200V210C215 212.753 217.247 215 220 215C222.753 215 225 212.753 225 210V200H255C260.506 200 265 195.506 265 190V175C265 169.491 260.506 165 255 165Z" fill="white"/>
<path d="M295 145H5C2.24688 145 0 147.247 0 150C0 152.753 2.24688 155 5 155H295C297.753 155 300 152.753 300 150C300 147.247 297.753 145 295 145Z" fill="white"/>
</g>
<defs>
<clipPath id="clip0_78_263">
<rect width="300" height="300" fill="white"/>
</clipPath>
</defs>
</svg>
