<svg width="300" height="300" viewBox="0 0 300 300" fill="none" xmlns="http://www.w3.org/2000/svg">
<path fill-rule="evenodd" clip-rule="evenodd" d="M79.1313 46.3813H56.8657C55.1407 46.3813 53.7407 44.9813 53.7407 43.2594C53.7407 41.5344 55.1407 40.1344 56.8657 40.1344H79.1313C80.8532 40.1344 82.2532 41.5344 82.2532 43.2594C82.2532 44.9813 80.8532 46.3813 79.1313 46.3813ZM296.869 213.853C295.144 213.853 293.747 212.456 293.747 210.731V64.3875C293.747 54.4563 285.659 46.3813 275.725 46.3813H126.388C124.663 46.3813 123.263 44.9813 123.263 43.2594C123.263 41.5344 124.663 40.1344 126.388 40.1344H275.725C289.106 40.1344 299.994 51.0125 299.994 64.3875V210.734C299.994 212.459 298.597 213.853 296.869 213.853Z" fill="white"/>
<path fill-rule="evenodd" clip-rule="evenodd" d="M79.1313 63.2375H56.8657C55.1407 63.2375 53.7407 61.8406 53.7407 60.1156C53.7407 58.3906 55.1407 56.9938 56.8657 56.9938H79.1313C80.8532 56.9938 82.2532 58.3906 82.2532 60.1156C82.2532 61.8406 80.8532 63.2375 79.1313 63.2375ZM279.997 213.853C278.269 213.853 276.872 212.456 276.872 210.731V64.3875C276.872 63.7656 276.347 63.2375 275.725 63.2375H126.388C124.663 63.2375 123.263 61.8406 123.263 60.1156C123.263 58.3906 124.663 56.9938 126.388 56.9938H275.725C279.8 56.9938 283.119 60.3125 283.119 64.3875V210.734C283.119 212.459 281.722 213.853 279.997 213.853Z" fill="white"/>
<path fill-rule="evenodd" clip-rule="evenodd" d="M6.55947 213.853C8.04385 222.3 15.4376 228.741 24.3095 228.741H275.722C284.594 228.741 291.988 222.3 293.472 213.853H6.55947ZM275.725 234.984H24.3095C10.9282 234.984 0.0375977 224.103 0.0375977 210.731C0.0375977 209.006 1.4376 207.609 3.1626 207.609H296.869C298.597 207.609 299.994 209.006 299.994 210.734C299.994 224.103 289.106 234.984 275.725 234.984Z" fill="white"/>
<path fill-rule="evenodd" clip-rule="evenodd" d="M150.016 292.109C130.35 292.109 111.834 290.5 97.8718 287.575C81.8468 284.219 74.0562 279.691 74.0562 273.728C74.0562 261.1 111.216 257.197 127.194 256.106C128.928 255.991 130.406 257.288 130.522 259.003C130.641 260.725 129.341 262.216 127.619 262.334C91.953 264.772 80.303 271.638 80.303 273.728C80.303 274.528 83.4999 278.184 99.153 281.466C112.706 284.303 130.769 285.866 150.016 285.866C169.262 285.866 187.328 284.303 200.881 281.466C216.531 278.184 219.731 274.528 219.731 273.728C219.731 271.638 208.084 264.772 172.419 262.334C170.697 262.216 169.397 260.725 169.512 259.003C169.631 257.288 171.122 255.994 172.841 256.106C188.819 257.197 225.981 261.1 225.981 273.728C225.981 279.691 218.191 284.219 202.166 287.575C188.2 290.5 169.681 292.109 150.016 292.109Z" fill="white"/>
<path fill-rule="evenodd" clip-rule="evenodd" d="M168.225 275.481H131.806C128.238 275.481 124.353 273.406 122.572 270.55C121.3 268.516 121.147 266.178 122.147 264.138C126.816 254.616 126.931 244.428 122.506 232.988C121.884 231.378 122.684 229.569 124.294 228.947C125.906 228.328 127.713 229.128 128.338 230.734C133.425 243.888 133.234 255.713 127.759 266.884C127.741 267.544 129.772 269.234 131.803 269.234H168.225C170.256 269.234 172.288 267.544 172.294 266.938C166.797 255.713 166.609 243.888 171.697 230.734C172.316 229.128 174.125 228.325 175.738 228.95C177.347 229.572 178.15 231.381 177.522 232.988C173.097 244.428 173.216 254.616 177.881 264.138C178.888 266.178 178.731 268.516 177.459 270.553C175.678 273.406 171.794 275.481 168.225 275.481Z" fill="white"/>
<path fill-rule="evenodd" clip-rule="evenodd" d="M82.2529 166.422H123.262V44.4719H82.2529V166.422ZM126.387 172.663H79.1279C77.4029 172.663 76.0029 171.266 76.0029 169.541V41.35C76.0029 39.625 77.4029 38.2281 79.1279 38.2281H126.387C128.112 38.2281 129.512 39.625 129.512 41.35V169.541C129.512 171.266 128.112 172.663 126.387 172.663Z" fill="white"/>
<path fill-rule="evenodd" clip-rule="evenodd" d="M126.388 44.4719C125.456 44.4719 124.531 44.0531 123.916 43.2594L102.76 15.9125L81.6002 43.2594C80.5471 44.6188 78.5846 44.8719 77.219 43.8156C75.8502 42.7625 75.6033 40.8031 76.6596 39.4375L100.288 8.89688C100.878 8.13438 101.791 7.6875 102.76 7.6875C103.725 7.6875 104.638 8.13438 105.228 8.89688L128.86 39.4375C129.916 40.8031 129.666 42.7625 128.297 43.8156C127.728 44.2594 127.056 44.4719 126.388 44.4719Z" fill="white"/>
<path fill-rule="evenodd" clip-rule="evenodd" d="M79.1311 188.35C77.4061 188.35 76.0029 186.953 76.0029 185.228V169.541C76.0029 167.819 77.4061 166.419 79.1311 166.419C80.8529 166.419 82.2529 167.819 82.2529 169.541V185.228C82.2529 186.953 80.8529 188.35 79.1311 188.35ZM126.387 188.35C124.662 188.35 123.262 186.953 123.262 185.228V169.541C123.262 167.819 124.662 166.419 126.387 166.419C128.112 166.419 129.512 167.819 129.512 169.541V185.228C129.512 186.953 128.112 188.35 126.387 188.35Z" fill="white"/>
<path fill-rule="evenodd" clip-rule="evenodd" d="M82.2904 188.35C82.9248 199.075 91.8623 207.609 102.756 207.609C113.653 207.609 122.59 199.075 123.225 188.35H82.2904ZM102.756 213.853C88.0061 213.853 76.0029 201.863 76.0029 187.122V185.228C76.0029 183.503 77.4061 182.106 79.1311 182.106H126.387C128.112 182.106 129.512 183.503 129.512 185.228V187.122C129.512 201.863 117.509 213.853 102.756 213.853Z" fill="white"/>
<path fill-rule="evenodd" clip-rule="evenodd" d="M102.756 156.556C101.031 156.556 99.6313 155.159 99.6313 153.434V57.4562C99.6313 55.7344 101.031 54.3344 102.756 54.3344C104.481 54.3344 105.881 55.7344 105.881 57.4562V153.434C105.881 155.159 104.481 156.556 102.756 156.556Z" fill="white"/>
<path fill-rule="evenodd" clip-rule="evenodd" d="M56.8657 213.853C55.1407 213.853 53.7407 212.456 53.7407 210.731V13.9312H6.2876V210.731C6.2876 212.456 4.89072 213.853 3.1626 213.853C1.4376 213.853 0.0375977 212.456 0.0375977 210.731V10.8094C0.0375977 9.08437 1.4376 7.6875 3.1626 7.6875H56.8657C58.5907 7.6875 59.9907 9.08437 59.9907 10.8094V210.734C59.9907 212.459 58.5907 213.853 56.8657 213.853Z" fill="white"/>
<path fill-rule="evenodd" clip-rule="evenodd" d="M23.6688 27.7781H3.1626C1.4376 27.7781 0.0375977 26.3812 0.0375977 24.6562C0.0375977 22.9312 1.4376 21.5344 3.1626 21.5344H23.6688C25.3938 21.5344 26.7907 22.9312 26.7907 24.6562C26.7907 26.3812 25.3938 27.7781 23.6688 27.7781Z" fill="white"/>
<path fill-rule="evenodd" clip-rule="evenodd" d="M23.6688 49.3094H3.1626C1.4376 49.3094 0.0375977 47.9094 0.0375977 46.1875C0.0375977 44.4625 1.4376 43.0656 3.1626 43.0656H23.6688C25.3938 43.0656 26.7907 44.4625 26.7907 46.1875C26.7907 47.9094 25.3938 49.3094 23.6688 49.3094Z" fill="white"/>
<path fill-rule="evenodd" clip-rule="evenodd" d="M23.6688 70.8375H3.1626C1.4376 70.8375 0.0375977 69.4375 0.0375977 67.7125C0.0375977 65.9906 1.4376 64.5906 3.1626 64.5906H23.6688C25.3938 64.5906 26.7907 65.9906 26.7907 67.7125C26.7907 69.4375 25.3938 70.8375 23.6688 70.8375Z" fill="white"/>
<path fill-rule="evenodd" clip-rule="evenodd" d="M23.6688 92.3625H3.1626C1.4376 92.3625 0.0375977 90.9656 0.0375977 89.2406C0.0375977 87.5188 1.4376 86.1188 3.1626 86.1188H23.6688C25.3938 86.1188 26.7907 87.5188 26.7907 89.2406C26.7907 90.9656 25.3938 92.3625 23.6688 92.3625Z" fill="white"/>
<path fill-rule="evenodd" clip-rule="evenodd" d="M23.6688 113.894H3.1626C1.4376 113.894 0.0375977 112.497 0.0375977 110.772C0.0375977 109.047 1.4376 107.65 3.1626 107.65H23.6688C25.3938 107.65 26.7907 109.047 26.7907 110.772C26.7907 112.497 25.3938 113.894 23.6688 113.894Z" fill="white"/>
<path fill-rule="evenodd" clip-rule="evenodd" d="M23.6688 135.419H3.1626C1.4376 135.419 0.0375977 134.022 0.0375977 132.3C0.0375977 130.575 1.4376 129.175 3.1626 129.175H23.6688C25.3938 129.175 26.7907 130.575 26.7907 132.3C26.7907 134.022 25.3938 135.419 23.6688 135.419Z" fill="white"/>
<path fill-rule="evenodd" clip-rule="evenodd" d="M23.6688 156.95H3.1626C1.4376 156.95 0.0375977 155.553 0.0375977 153.828C0.0375977 152.103 1.4376 150.706 3.1626 150.706H23.6688C25.3938 150.706 26.7907 152.103 26.7907 153.828C26.7907 155.553 25.3938 156.95 23.6688 156.95Z" fill="white"/>
<path fill-rule="evenodd" clip-rule="evenodd" d="M23.6688 178.478H3.1626C1.4376 178.478 0.0375977 177.081 0.0375977 175.356C0.0375977 173.631 1.4376 172.234 3.1626 172.234H23.6688C25.3938 172.234 26.7907 173.631 26.7907 175.356C26.7907 177.081 25.3938 178.478 23.6688 178.478Z" fill="white"/>
<path fill-rule="evenodd" clip-rule="evenodd" d="M23.6688 200.006H3.1626C1.4376 200.006 0.0375977 198.609 0.0375977 196.884C0.0375977 195.159 1.4376 193.762 3.1626 193.762H23.6688C25.3938 193.762 26.7907 195.159 26.7907 196.884C26.7907 198.609 25.3938 200.006 23.6688 200.006Z" fill="white"/>
<path fill-rule="evenodd" clip-rule="evenodd" d="M148.65 196.109C146.925 196.109 145.525 194.712 145.525 192.987V77.8594C145.525 76.1344 146.925 74.7406 148.65 74.7406C150.375 74.7406 151.775 76.1344 151.775 77.8594V192.987C151.775 194.712 150.375 196.109 148.65 196.109Z" fill="white"/>
<path fill-rule="evenodd" clip-rule="evenodd" d="M174.038 132.378H255.1V80.9844H174.038V132.378ZM258.222 138.622H170.913C169.184 138.622 167.788 137.225 167.788 135.5V77.8625C167.788 76.1375 169.184 74.7406 170.913 74.7406H258.222C259.95 74.7406 261.347 76.1375 261.347 77.8625V135.5C261.347 137.225 259.95 138.622 258.222 138.622Z" fill="white"/>
<path fill-rule="evenodd" clip-rule="evenodd" d="M258.222 196.259H214.569C212.841 196.259 211.444 194.859 211.444 193.134C211.444 191.413 212.841 190.013 214.569 190.013H255.1V135.5C255.1 133.775 256.497 132.378 258.222 132.378C259.95 132.378 261.347 133.775 261.347 135.5V193.134C261.347 194.859 259.95 196.259 258.222 196.259Z" fill="white"/>
<path fill-rule="evenodd" clip-rule="evenodd" d="M214.569 196.259H170.913C169.184 196.259 167.788 194.859 167.788 193.134V135.5C167.788 133.775 169.184 132.378 170.913 132.378C172.638 132.378 174.038 133.775 174.038 135.5V190.013H211.444V135.5C211.444 133.775 212.841 132.378 214.569 132.378C216.294 132.378 217.691 133.775 217.691 135.5V193.134C217.691 194.859 216.294 196.259 214.569 196.259Z" fill="white"/>
</svg>
